<?xml version="1.0" encoding="UTF-8" standalone="no"?>
<!-- Created with Inkscape (http://www.inkscape.org/) -->

<svg
   xmlns:dc="http://purl.org/dc/elements/1.1/"
   xmlns:cc="http://creativecommons.org/ns#"
   xmlns:rdf="http://www.w3.org/1999/02/22-rdf-syntax-ns#"
   xmlns:svg="http://www.w3.org/2000/svg"
   xmlns="http://www.w3.org/2000/svg"
   xmlns:sodipodi="http://sodipodi.sourceforge.net/DTD/sodipodi-0.dtd"
   xmlns:inkscape="http://www.inkscape.org/namespaces/inkscape"
   width="210mm"
   height="297mm"
   viewBox="0 0 744.09448819 1052.3622047"
   id="svg2"
   version="1.1"
   inkscape:version="0.91 r"
   sodipodi:docname="icon.svg">
  <defs
     id="defs4" />
  <sodipodi:namedview
     id="base"
     pagecolor="#ffffff"
     bordercolor="#666666"
     borderopacity="1.0"
     inkscape:pageopacity="0.0"
     inkscape:pageshadow="2"
     inkscape:zoom="0.5"
     inkscape:cx="391.24398"
     inkscape:cy="498"
     inkscape:document-units="px"
     inkscape:current-layer="layer1"
     showgrid="false"
     inkscape:window-width="1366"
     inkscape:window-height="716"
     inkscape:window-x="0"
     inkscape:window-y="0"
     inkscape:window-maximized="1" />
  <metadata
     id="metadata7">
    <rdf:RDF>
      <cc:Work
         rdf:about="">
        <dc:format>image/svg+xml</dc:format>
        <dc:type
           rdf:resource="http://purl.org/dc/dcmitype/StillImage" />
        <dc:title></dc:title>
      </cc:Work>
    </rdf:RDF>
  </metadata>
  <g
     inkscape:label="Camada 1"
     inkscape:groupmode="layer"
     id="layer1">
    <path
       style="fill:#333333"
       id="path3378"
       d="m 29.882254,848.54569 c 16.16014,0.53297 32.327929,0.53528 48.492206,0.60257 18.52526,-0.30417 37.06067,0.82768 55.5839,0.51389 17.89915,-0.30319 22.53097,-1.10331 40.92632,-2.808 58.26947,-5.82914 116.45876,-12.95771 174.71805,-19.00157 69.74134,-7.02261 139.54714,-12.15205 209.44505,-15.41404 50.36263,-2.14281 100.74792,-2.96346 151.12737,-4.0666 15.66614,-1.66383 31.68519,1.18159 47.28982,-1.49432 0,0 -33.54186,32.6794 -33.54186,32.6794 l 0,0 c -15.15823,0.65153 -30.3458,-1.08504 -45.50915,-0.73965 -49.4019,-0.69757 -98.81424,-0.30815 -148.20267,1.43991 -69.94789,2.93052 -139.77263,8.44084 -209.53554,15.77511 -58.86776,6.36434 -117.6444,13.99171 -176.48898,20.68452 -7.39475,0.74822 -14.78045,1.67244 -22.18422,2.24466 -25.40772,1.96368 -50.887328,0.9745 -76.320485,1.50356 -16.583681,0.0684 -33.170437,0.0811 -49.7502639,0.60257 0,0 33.9504529,-32.52201 33.9504529,-32.52201 z"
       inkscape:connector-curvature="0" />
    <path
       style="fill:#333333"
       id="path3390"
       d="m 158.8505,870.1695 c 1.51391,-10.35992 1.70649,-20.92946 2.63044,-31.3803 1.12296,-8.28104 1.79715,-16.65291 3.17696,-24.86869 1.39854,-7.19928 1.99239,-14.57328 2.32024,-21.97156 0.24927,-7.41366 0.23215,-14.83696 0.23247,-22.25617 -0.007,-7.47067 -0.0167,-14.94133 -0.0218,-22.412 -0.0282,-7.8364 0.016,-15.67237 0.0363,-23.50855 0.0642,-10.78736 0.0784,-21.575 0.10342,-32.36258 -0.04,-13.17574 0.082,-26.35069 0.11008,-39.52626 0.0646,-16.88809 0.085,-33.77668 0.0679,-50.66502 -0.0161,-17.89918 0.0577,-35.79816 0.0462,-53.69743 -4.6e-4,-15.50496 -0.0779,-31.00895 -0.21278,-46.51278 -0.0894,-10.1448 -0.0684,-20.29055 -0.0765,-30.43583 0.0551,-11.08394 0.0711,-22.16798 0.0295,-33.25199 -0.065,-10.58036 0.0215,-21.16085 0.0167,-31.74126 0.058,-12.49369 0.0371,-24.98739 0.0587,-37.48119 -0.3302,-14.28878 0.33546,-28.49306 1.26364,-42.71645 0.58754,-13.15506 1.30922,-26.24836 2.59493,-39.31809 1.0175,-10.02111 1.40478,-20.11425 1.58519,-30.21269 -0.23738,-8.3762 0.51957,-16.62422 1.87947,-24.78736 1.45421,-8.1679 4.13816,-15.7337 7.19877,-23.03555 9.92731,-23.05212 31.28137,-30.25414 48.09749,-42.96221 6.90228,-3.84799 14.81664,-3.29939 22.17962,-3.49494 13.38577,0.41221 26.70145,-0.7466 40.04011,-2.00841 13.60388,-0.59608 27.11359,-2.77695 40.67615,-4.15641 10.60826,-0.94434 21.23858,-1.38009 31.86796,-1.62315 7.78892,-0.10876 15.57787,-0.0256 23.36686,-0.013 8.16281,-0.0522 16.32541,0.0489 24.48819,0.0467 8.02295,0.0327 16.04587,-0.0379 24.06875,-0.079 7.523,-0.95804 12.28941,4.22938 17.07152,11.08044 4.98231,7.00097 8.60267,15.39802 11.37936,24.21719 2.17256,7.57067 2.65415,15.6282 2.91399,23.63653 0.0782,7.60407 0.29299,15.22825 -0.16145,22.81492 -0.66341,7.64273 -2.07197,15.06696 -4.42756,22.1008 -0.3312,0.99743 -0.6624,1.99482 -0.9936,2.99223 0,0 -38.12974,23.21246 -38.12974,23.21246 l 0,0 c 0.3087,-1.07427 0.61742,-2.14853 0.92612,-3.22281 2.40121,-6.60389 4.49901,-13.17326 5.02657,-20.59044 0.97295,-7.2503 0.31137,-14.69998 0.4578,-22.0362 -0.14153,-7.40415 -0.34891,-14.89694 -2.16382,-21.98274 -2.43115,-8.25414 -5.79155,-16.07723 -10.52172,-22.43591 -4.85572,-6.36798 -8.30144,-7.94049 -15.22155,-7.36637 -7.96703,-0.0411 -15.9341,-0.11228 -23.90123,-0.0834 -8.18233,-0.008 -16.36458,0.0846 -24.54687,0.003 -7.77955,-0.0113 -15.55953,0.0113 -23.33885,0.0852 -10.44572,0.13019 -20.89443,0.45254 -31.31275,1.52654 -13.5504,1.4292 -27.0711,3.32439 -40.65845,4.08171 -13.43125,1.2086 -26.85137,1.86566 -40.3132,2.06528 -7.3691,0.56308 -14.9899,0.77178 -21.49834,5.93451 -13.94001,9.11869 -1.60658,1.1366 31.18172,-24.32105 0.79009,-0.61344 -1.65878,1.04839 -2.42386,1.71464 -2.45677,2.13937 -4.20774,5.20264 -5.92588,8.28807 -2.87761,7.06003 -6.13854,13.89904 -7.58052,21.7999 -1.81817,7.65229 -2.52319,15.69038 -2.40434,23.69701 -0.2065,10.29733 -0.48686,20.60956 -1.55206,30.82693 -1.27388,13.0588 -2.55686,26.05771 -2.88469,39.24294 -0.90269,14.06451 -1.79664,28.08539 -1.30262,42.22125 0.0215,12.46752 6.5e-4,24.93497 0.0587,37.40238 -0.004,10.57292 0.0817,21.14592 0.0167,31.71879 -0.0414,11.07081 -0.0261,22.14165 0.0295,33.21235 -0.008,10.17955 0.0128,20.35956 -0.0765,30.53862 -0.13417,15.59911 -0.21227,31.19841 -0.21277,46.79865 -0.0113,17.87857 0.0625,35.75685 0.0462,53.63534 -0.017,16.85795 0.003,33.71614 0.0679,50.57386 0.0281,13.12633 0.15014,26.25204 0.10994,39.37855 0.0249,10.74123 0.0387,21.48248 0.10328,32.22345 0.0205,7.81644 0.065,15.63268 0.0448,23.44935 0.004,7.47099 0.0113,14.94201 0.0225,22.41298 0.007,7.50101 0.0316,15.0041 -0.13686,22.5027 -0.23846,7.6783 -0.64328,15.37382 -2.01641,22.87011 -1.48673,8.11695 -2.2952,16.32834 -3.46324,24.54035 -1.36957,10.29791 -1.32969,20.85365 -2.39887,31.21791 0,0 -37.71363,24.45337 -37.71363,24.45337 z"
       inkscape:connector-curvature="0" />
    <path
       style="fill:#333333"
       id="path3392"
       d="m 435.67035,305.77973 c -7.8765,-0.23033 -15.75628,-0.13915 -23.63405,-0.10048 -6.26676,0.0351 -12.53356,0.0517 -18.80037,0.0606 -5.87176,-0.77968 -10.49739,1.21376 -15.77091,4.14224 -12.78495,9.13274 -29.98215,21.84398 29.21191,-22.25545 0.75965,-0.56593 -1.48212,1.2194 -2.18159,1.90706 -1.78444,1.75436 -2.18072,2.47718 -3.72026,4.59523 -3.16646,4.22882 -5.57417,9.37733 -7.56964,14.67888 -2.48403,5.24938 -3.82881,11.2393 -5.20889,17.10759 -1.50957,6.94683 -1.81456,14.17778 -2.02337,21.35627 -0.14902,7.45715 -0.11773,14.91796 -0.10753,22.37693 -0.13657,6.21336 -0.24682,12.33463 2.35565,17.70867 3.34936,3.83761 7.82662,5.43988 11.72894,8.22497 4.58039,2.33045 8.80637,5.53927 13.59744,7.10571 4.15032,3.01231 8.67773,4.06166 13.3273,4.64067 5.41345,0.49117 10.84418,0.45231 16.26738,0.45463 5.67071,-0.013 11.34141,-0.0326 17.01213,-0.043 5.06411,0.19121 9.85404,-2.41351 14.5777,-4.49819 -2.01959,3.31166 10.61875,-6.45484 7.0007,-3.69785 -59.27608,45.16888 -42.59746,32.43383 -30.26221,22.47415 4.7519,-3.9312 8.64489,-9.27919 12.40701,-14.69631 3.04333,-4.0648 5.70268,-8.76826 7.49973,-13.97618 2.14959,-6.53886 3.25334,-13.50382 4.72606,-20.32595 1.64353,-7.0959 2.22889,-14.46016 2.56475,-21.83117 0.0724,-7.15777 0.56644,-14.38424 -0.0113,-21.51834 -0.54158,-6.51963 -3.45628,-11.45806 -6.91921,-15.87647 -3.61139,-3.79804 -7.60255,-6.52484 -11.86118,-8.84278 -4.83156,-1.51598 -9.3215,-4.23105 -14.1993,-5.53728 -5.03421,-2.71972 -10.36994,-3.8209 -15.75065,-4.45198 -5.59996,-0.49952 -11.21666,-0.4712 -16.82641,-0.47521 -5.63942,-0.26795 -11.3309,0.91062 -16.67091,3.31134 -4.92035,1.987 -9.36303,5.52587 -13.90571,8.62317 63.62509,-46.77253 37.45822,-32.15334 26.34026,-17.48474 -3.36613,3.81528 -6.00375,8.64591 -8.46343,13.48287 -1.67106,3.61978 -2.21359,7.72075 -2.68702,11.83552 0,0 -37.62937,24.54139 -37.62937,24.54139 l 0,0 c 0.31669,-4.65215 0.66611,-9.33416 1.94432,-13.73653 1.94858,-5.6239 5.03533,-10.27887 7.83682,-15.20004 4.48322,-4.56287 -1.39539,1.6687 2.89662,-3.74862 12.00643,-15.15437 30.6425,-19.5536 42.54089,-34.41651 4.54057,-3.22476 9.37699,-5.87154 14.37832,-7.55395 5.73508,-1.55836 11.48123,-2.63264 17.35905,-2.13928 5.70473,0.054 11.42405,0.10649 17.09934,0.96049 5.49456,0.99456 10.82015,2.75921 16.10622,4.96369 4.9347,1.81096 9.75738,4.18474 14.59828,6.36794 4.60329,2.83005 8.99208,5.99077 12.72698,10.62219 3.84081,5.42614 7.41123,11.37107 8.24795,18.9431 0.90777,7.41497 0.2896,14.98904 0.31308,22.47587 -0.24218,7.7132 -0.64192,15.45693 -2.15851,22.94975 -1.45813,6.88271 -2.47921,13.92803 -4.50168,20.57445 -1.25969,6.17964 -3.81261,11.29843 -6.79673,16.28109 -4.17815,5.01313 -7.44722,11.25013 -12.06954,15.66649 -14.99299,14.53972 -31.14928,28.27782 -49.04044,35.37333 -4.97351,2.10232 -10.08462,3.45182 -15.33674,3.07019 -5.67561,0.013 -11.35126,0.0405 -17.02689,0.0234 -5.54347,-0.0465 -11.10696,-0.0595 -16.61645,-0.96926 -4.77527,-1.00584 -9.28535,-2.86937 -13.73351,-5.36681 -4.81007,-2.18894 -9.3497,-5.27804 -14.011,-7.94969 -4.61951,-2.90805 -9.67257,-5.24493 -12.94419,-10.71175 -3.02283,-6.31154 -3.75358,-13.09871 -3.39554,-20.51321 -0.0128,-7.51316 -0.0429,-15.02708 0.0441,-22.53971 0.13742,-7.54307 0.33072,-15.13157 1.55241,-22.53221 1.17723,-6.24171 2.65467,-12.50184 4.66029,-18.34527 2.65748,-5.0829 4.13584,-11.2196 7.23003,-15.9988 1.81897,-2.35177 3.33091,-5.93199 5.54107,-7.66483 12.92617,-10.13452 27.91154,-23.75369 43.00275,-31.95021 5.39118,-2.39765 10.9636,-2.79174 16.62589,-2.48576 6.22473,0.009 12.44945,0.0252 18.67413,0.0606 7.94773,0.0395 15.8973,0.12646 23.84383,-0.10048 0,0 -34.00472,32.57397 -34.00472,32.57397 z"
       inkscape:connector-curvature="0" />
    <path
       style="fill:#333333"
       id="path3402"
       d="m 453.93659,410.79431 c -0.26175,10.45458 -0.16054,20.91845 -0.11546,31.3767 0.47738,8.44147 -0.55316,16.71457 -1.50362,25.01884 -0.56636,7.03527 -1.04215,13.99235 -2.25485,20.89277 -0.65342,6.20149 -2.05685,12.14467 -3.21912,18.19068 -0.83371,6.41376 -1.31103,12.81932 -2.4609,19.16008 -1.19951,6.72355 -1.38277,13.62819 -2.36326,20.40215 -1.23843,7.20729 -1.77759,14.55152 -2.08321,21.91473 -0.23811,7.43609 -0.22718,14.88078 -0.23006,22.32195 0.004,7.47218 0.0127,14.94435 0.018,22.41654 0.003,4.98153 0.004,9.96306 0.004,14.94459 0,0 -37.36936,25.10548 -37.36936,25.10548 l 0,0 c -4.7e-4,-4.98058 -9.6e-4,-9.96115 -0.003,-14.9417 -0.004,-7.47331 -0.0113,-14.94662 -0.019,-22.41993 -0.004,-7.51794 -0.0224,-15.03774 0.14213,-22.55334 0.22472,-7.59663 0.59411,-15.20698 1.79474,-22.66323 1.09341,-6.80282 1.48105,-13.60901 2.23457,-20.4892 1.06831,-6.37343 2.32898,-12.52663 2.48005,-19.11433 0.88861,-6.19009 2.80026,-11.92218 3.21338,-18.22637 1.15193,-6.84429 2.40779,-13.48252 2.48962,-20.56537 0.87392,-8.11953 2.38108,-16.12417 1.90987,-24.39022 0.0446,-10.40646 0.14841,-20.81886 -0.11546,-31.22151 0,0 37.45091,-25.15931 37.45091,-25.15931 z"
       inkscape:connector-curvature="0" />
    <path
       style="fill:#333333"
       id="path3404"
       d="m 436.19935,602.10949 c -4.2879,6.8337 -7.98924,14.20814 -11.71996,21.56821 -2.79966,5.04238 -5.33263,10.30142 -7.8528,15.59117 -2.63619,5.373 -5.13233,10.79631 -7.33349,16.50069 -1.75931,6.09065 -3.50099,12.25458 -4.87607,18.52521 -1.25954,6.5247 -1.10885,13.28502 -2.08686,19.86786 -0.93765,6.17112 -1.75915,12.3064 -3.09582,18.35307 -1.05634,6.71811 -2.40916,13.35178 -3.46487,20.07104 -1.53833,7.26113 -2.63924,14.62773 -3.75798,22.01224 -1.11756,5.66106 -2.26896,11.28198 -3.61108,16.85251 -0.68279,-1.69622 -0.19815,-0.39433 -1.04244,-4.12796 0,0 -33.75258,33.68201 -33.75258,33.68201 l 0,0 c -2.96516,-3.64755 -2.05954,-1.68114 -3.23158,-5.42944 0.36195,-2.78663 1.34035,-4.92717 1.94637,-7.57724 0.71199,-3.11336 0.73654,-6.54024 1.79928,-9.54369 1.79393,-7.01685 1.73368,-14.74274 3.92702,-21.67458 0.87867,-6.88899 2.48247,-13.5091 3.23129,-20.41914 1.16638,-6.05953 2.72055,-11.85142 3.19109,-18.13069 1.268,-6.61048 1.38246,-13.23357 2.06027,-19.99119 1.07164,-6.73024 3.263,-12.86549 4.56467,-19.50536 1.94639,-6.07185 4.36436,-11.68177 7.04162,-17.1858 2.66584,-5.23881 4.77642,-10.90817 7.96875,-15.63179 3.55469,-7.57487 7.55468,-14.72159 11.40609,-22.01353 0,0 38.68908,-21.7936 38.68908,-21.7936 z"
       inkscape:connector-curvature="0" />
    <path
       style="fill:#333333"
       id="path3406"
       d="m 448.26972,616.26357 c -0.27786,10.3813 -0.40796,20.75094 0.56738,31.0695 0.82072,7.07305 2.2592,14.17762 4.1251,20.90857 1.83308,5.91802 3.19174,12.09609 5.13116,17.95076 1.79536,5.40456 3.44124,10.941 5.59145,16.1234 2.35824,5.75389 3.98476,11.93758 5.74444,18.03064 1.68758,6.63546 3.64574,13.13122 5.65692,19.60892 1.79697,6.75722 3.6514,13.40028 6.07516,19.81028 0,0 -36.50097,27.36992 -36.50097,27.36992 l 0,0 c -2.42121,-6.52849 -4.42353,-13.22337 -6.19419,-20.10576 -2.11501,-6.46727 -3.94963,-13.0851 -5.67815,-19.7434 -1.78983,-5.83092 -3.30742,-11.81477 -5.60166,-17.3574 -2.18182,-5.33896 -3.91505,-10.98959 -5.70676,-16.56898 -1.98618,-5.94134 -3.43019,-12.18924 -5.26845,-18.21616 -2.0296,-7.10309 -3.41518,-14.72588 -4.34615,-22.19223 -1.02937,-10.49436 -0.92985,-20.95927 -1.04619,-31.52873 0,0 37.45091,-25.15933 37.45091,-25.15933 z"
       inkscape:connector-curvature="0" />
    <path
       style="fill:#333333"
       id="path3408"
       d="m 448.26972,608.79196 c -0.24781,5.10246 -0.16486,10.1692 0.11957,15.25989 0,0 -37.01217,25.39849 -37.01217,25.39849 l 0,0 c -0.38679,-5.17048 -0.52057,-10.30301 -0.5583,-15.49906 0,0 37.45091,-25.15932 37.45091,-25.15932 z"
       inkscape:connector-curvature="0" />
    <path
       style="fill:#333333"
       id="path3412"
       d="m 454.49956,454.03994 c 3.23098,8.00849 7.30382,15.36071 11.8394,22.16284 3.64894,5.05402 6.69523,10.74583 10.03338,16.13307 2.86237,4.62685 5.46781,9.44218 7.8784,14.50575 3.06273,5.68382 5.01561,12.16781 7.43069,18.31036 1.71422,5.57216 3.90939,10.68723 6.40418,15.69006 2.14566,4.80829 4.18573,9.67197 6.2274,14.56399 0.31615,0.94089 0.63232,1.88182 0.94847,2.82271 0,0 -36.67375,27.19607 -36.67375,27.19607 l 0,0 c -0.2561,-0.78992 -0.5122,-1.57984 -0.7683,-2.36974 -1.99014,-4.76442 -3.96663,-9.50835 -6.05969,-14.19097 -2.57724,-5.17421 -4.79922,-10.51031 -6.54192,-16.27343 -2.32217,-6.02872 -4.24424,-12.3458 -7.33299,-17.82285 -2.33432,-4.87773 -4.83746,-9.53288 -7.57948,-14.02482 -3.21131,-5.44123 -6.40703,-10.87074 -9.83661,-16.08312 -4.58391,-7.33924 -8.77551,-15.05273 -12.51243,-23.18629 0,0 36.54325,-27.43363 36.54325,-27.43363 z"
       inkscape:connector-curvature="0" />
    <path
       style="fill:#333333"
       id="path3416"
       d="m 442.01708,452.5938 c -3.59187,8.95848 -7.5375,17.64719 -11.42784,26.38141 -3.283,7.17139 -6.21744,14.57367 -8.81228,22.21322 -2.20908,5.57148 -3.6635,11.56928 -5.36622,17.42492 -1.55605,5.33716 -3.39398,10.52795 -5.45755,15.55687 -2.13664,4.62979 -5.03514,8.43834 -7.73765,12.4661 -3.33456,4.00164 -5.93112,8.91622 -8.60861,13.66508 -2.59145,4.40521 -5.59251,8.3206 -8.40868,12.46082 -2.80371,3.78541 -5.75669,7.38288 -8.48848,11.26045 -2.44644,2.95519 -4.65209,6.22461 -7.09234,9.18858 0,0 -38.83326,21.45525 -38.83326,21.45525 l 0,0 c 2.10211,-3.51337 4.86824,-6.09176 6.95695,-9.61865 3.16356,-3.22518 5.71133,-7.47264 8.51319,-11.1978 3.26524,-3.37862 5.9167,-7.85193 8.61131,-11.97316 3.27667,-4.21442 5.38883,-9.60695 8.40308,-14.14538 3.0995,-3.16858 5.68936,-7.39239 8.06912,-11.44662 2.89036,-4.07623 3.81824,-9.44449 6.00208,-14.12784 1.40602,-6.2104 3.42514,-12.16556 5.21075,-18.19005 3.15833,-7.33056 5.13158,-15.5691 8.86004,-22.53993 3.65484,-8.75104 8.01495,-16.95261 11.29346,-25.97895 0,0 38.31293,-22.85432 38.31293,-22.85432 z"
       inkscape:connector-curvature="0" />
    <path
       style="fill:#4d4d4d"
       id="path3509"
       d="m 17.217485,-6.6977993 c -0.184767,5.596954 -0.113326,11.1989003 -0.08154,16.7978313 0.02857,4.400221 0.04209,8.800509 0.04907,13.20081 0.0048,4.000325 0.0044,8.000654 0.0044,12.000982 -1.89e-4,3.993766 -3.86e-4,7.987533 -4.9e-4,11.981299 -8.8e-5,3.999601 -9.4e-5,7.999202 -10e-5,11.998802 -2e-6,4.000072 0,8.000145 2e-6,12.000217 1e-6,4.000011 1e-6,8.000021 1e-6,12.000032 0,4 0,7.999999 0,11.999999 0,4 0,7.999997 0,11.999997 0,4 0,8 0,12 0,4 0,8 0,12 0,4 0,8 0,12 0,4 0,8 0,12 0,4 0,8 0,12 0.207315,4.12086 -0.120791,8.16326 -0.798104,12.22182 -0.711689,3.90338 -0.966786,7.86193 -1.114712,11.81999 -0.111513,3.9847 -0.101583,7.97149 -0.100523,11.95737 0.0042,4.00004 0.0087,8.00008 0.01113,12.00012 0.002,4.00022 0.0021,8.00045 0.0023,12.00067 6.1e-5,4.00001 -1e-6,8.00003 -3e-5,12.00004 -2.7e-5,4 -3.3e-5,8 -3.7e-5,11.99999 0.02877,4.09231 0.131584,8.16123 -0.463682,12.21789 -0.754168,3.91304 -1.155001,7.87069 -1.375189,11.84531 -0.146159,4.06947 -0.04148,8.11949 -0.638711,12.15527 -0.753412,3.9123 -1.14771,7.87 -1.364678,11.84378 -0.170865,3.97691 -0.167387,7.95851 -0.171611,11.93827 0.0012,3.99952 0.0074,7.99903 0.01052,11.99854 0.135046,4.10125 -0.828593,8.11911 -1.3665073,12.16255 -0.4605906,4.02631 -0.4371097,8.06686 -1.0832985,12.07129 -0.7903817,3.90249 -1.1795216,7.85844 -1.3948681,11.82873 -0.1684439,3.9771 -0.163293,7.95878 -0.1666068,11.93862 0.00198,3.99961 0.00818,7.9992 0.011323,11.99881 0.00276,4.00029 0.00307,8.00058 0.00333,12.00088 1.434e-4,4.00002 6.66e-5,8.00005 3.34e-5,12.00007 -3.4e-5,4 -4.39e-5,8 -4.99e-5,11.99999 -0.097233,3.99007 0.8547327,7.90129 1.365277,11.84066 0.4495029,3.98211 0.4160231,7.97535 1.0784413,11.93129 0.7822189,4.65631 1.1953079,9.35885 1.3716199,14.07365 0.01106,4.64279 0.994402,9.20261 1.557335,13.79595 0.431902,4.65768 0.53559,9.33663 0.603132,14.01111 0.03749,4.2039 0.0535,8.40826 0.01131,12.61215 -0.0152,5.19175 -0.03713,10.38341 -0.07493,15.57507 -0.05525,7.29477 -0.07039,14.58975 -0.08107,21.88469 0.0311,6.75786 0.03698,13.51576 0.08482,20.27354 -0.08944,6.09 0.893384,12.1253 1.383505,18.1842 0.471109,5.96938 0.534138,11.9599 0.620405,17.94415 0.004,6.33665 -0.0081,12.6734 -0.03307,19.01005 -9.44e-4,6.68058 0.0066,13.36117 -0.01067,20.04174 0.0015,8.0302 -0.08341,16.05997 -0.105114,24.09004 1.12e-4,6.01985 -0.0098,3.06409 0.02751,8.86728 0,0 -25.974752,13.23481 -25.974752,13.23481 l 0,0 c 0.03715,-5.83115 0.02737,-2.86606 0.02745,-8.89529 -0.02168,-7.99476 -0.107088,-15.98922 -0.103754,-23.98411 -0.01527,-6.6802 -0.0044,-13.36044 0.0049,-20.04063 -0.01612,-6.31167 -0.0027,-12.6233 -0.05698,-18.93485 -0.0115,-5.93087 -0.08031,-11.86524 -0.473733,-17.78517 -0.475115,-6.12974 -1.461029,-12.22998 -1.515232,-18.3778 0.04766,-6.78656 0.05368,-13.57324 0.08465,-20.35989 -0.01069,-7.2678 -0.02596,-14.53564 -0.0798,-21.80327 -0.03621,-5.16988 -0.05573,-10.33976 -0.05935,-15.50975 -0.03322,-4.19268 0.0073,-8.38542 -0.0069,-12.57819 -0.02366,-4.58125 -0.05153,-9.17023 -0.467144,-13.73628 -0.492463,-4.68022 -1.506865,-9.30946 -1.612872,-14.01713 -0.180736,-4.57763 -0.41863,-9.16565 -1.254605,-13.6799 -0.742709,-4.00781 -0.904157,-8.00354 -1.154638,-12.06871 -0.466225,-4.06192 -1.484406,-8.07145 -1.533424,-12.15934 4e-6,-4.00001 10e-6,-8.00001 4.1e-5,-12.00001 3.1e-5,-3.99998 10e-5,-7.99995 4.2e-5,-11.99993 -1.35e-4,-3.99971 -2.61e-4,-7.99941 -0.0024,-11.99912 -0.0026,-4.0004 -0.0075,-8.0008 -0.01254,-12.00119 -0.0018,-4.02056 -0.01315,-8.04213 0.1049,-12.06138 0.160036,-4.07832 0.42962,-8.16023 1.231447,-12.17127 0.762466,-3.95897 0.907416,-7.9046 1.149764,-11.92871 0.443069,-3.96028 1.433564,-7.86237 1.526381,-11.83745 -0.0026,-4.00049 -0.0075,-8.00098 -0.01201,-12.00146 -0.0011,-4.02069 -0.01121,-8.04241 0.109565,-12.06173 0.162109,-4.07262 0.436244,-8.14724 1.215134,-12.15622 0.724948,-3.93624 0.810277,-7.83964 0.787312,-11.84473 0.164726,-4.0725 0.443629,-8.14661 1.227126,-12.15469 0.723051,-3.91623 0.818837,-7.79598 0.67526,-11.78211 2e-6,-4.00001 6e-6,-8.00001 2.9e-5,-12.00001 2.6e-5,-3.99999 7.9e-5,-7.99997 7.2e-5,-11.99996 -5.8e-5,-3.99978 -7.1e-5,-7.99955 -0.0016,-11.99933 -0.0019,-3.99996 -0.0053,-7.99992 -0.01101,-11.99988 -0.0039,-4.01422 -0.0168,-8.0289 0.05747,-12.04263 0.10606,-4.07251 0.277855,-8.1531 0.941726,-12.18001 0.6647745,-3.92536 1.368657,-7.76712 1.013303,-11.77818 0,-4 0,-8 0,-12 0,-4 0,-8 0,-12 0,-4 0,-8 0,-12 0,-4 0,-8 0,-12 0,-4 0,-8 0,-12 0,-4 0,-8 0,-12 0,-4 0,-8 1e-7,-12.000001 10e-8,-4.000011 4e-7,-8.000023 1.6e-6,-12.000034 1.3e-6,-4.000073 4e-6,-8.000145 1.4e-6,-12.000218 -5.8e-6,-3.999567 -1.15e-5,-7.999134 -9.94e-5,-11.9987 -1.042e-4,-3.993601 -3.014e-4,-7.987201 -4.898e-4,-11.980801 -5.06e-5,-4.001814 -4.57e-4,-8.003631 0.00438,-12.005443 0.00699,-4.416968 0.020565,-8.833924 0.049068,-13.250812 0.031449,-5.571203 0.1047563,-11.145583 -0.081538,-16.7147399 0,0 26.4349701,-13.4692904 26.4349701,-13.4692904 z"
       inkscape:connector-curvature="0" />
    <path
       style="fill:#4d4d4d"
       id="path3515"
       d="m 743.89919,1060.2898 c -8.85959,-2.0238 -17.89159,-3.1346 -26.85348,-4.5926 -8.85225,-1.4953 -17.80084,-2.216 -26.76323,-2.5677 -6.12633,-0.191 -12.25616,-0.1549 -18.38452,-0.1562 -6.32271,0.014 -12.64546,0.01 -18.96819,0.01 -5.9638,0 -11.92757,0.045 -17.89135,0.039 -5.96453,-0.3676 -11.83106,0.4097 -17.74728,0.9953 -7.08248,0.2629 -14.0855,1.1789 -21.1251,1.9204 -6.71954,0.2622 -13.33856,1.2393 -19.99808,2.0663 -6.30827,0.3881 -12.53953,1.2722 -18.81577,1.9779 -6.78718,0.8672 -13.67387,0.4374 -20.44652,1.3243 -6.00561,1.026 -12.09859,1.3214 -18.17738,1.5275 -6.82606,0.1827 -13.65473,0.1618 -20.48249,0.152 -7.47969,-0.028 -14.95937,-0.01 -22.43907,-0.013 -7.66588,-0.362 -15.26186,0.3353 -22.88658,0.9843 -7.97896,0.6672 -15.98595,0.8367 -23.98823,0.9439 -7.24852,0.061 -14.49723,0.088 -21.74594,0.1108 -6.03897,0.016 -12.07808,0 -18.11706,-0.017 -5.43873,0 -10.87739,0.035 -16.31608,0.054 -5.07374,-0.019 -10.14743,-0.024 -15.2212,-0.012 -5.21155,-0.01 -10.42313,-0.015 -15.63468,0 -5.33135,0 -10.66276,0 -15.9941,-0.019 -6.02593,0.01 -12.05184,-0.021 -18.07775,-0.014 -6.67978,-0.016 -13.35952,-0.025 -20.03929,-0.01 -5.86243,0.026 -11.72491,0.011 -17.58737,0.029 -5.61806,0.023 -11.23616,0 -16.85418,-0.028 -6.99378,-0.011 -13.9876,-0.017 -20.98141,-0.028 -6.8046,0.026 -13.60926,0.01 -20.41387,0.026 -6.80463,-0.015 -13.60924,0 -20.41386,-0.013 -6.17324,0.029 -12.34653,0.02 -18.51979,0.032 -5.61015,0.017 -11.22028,0 -16.83044,0.013 -5.78433,-0.019 -11.5687,-0.016 -17.35305,-0.01 -5.72968,0.024 -11.45935,-0.014 -17.18902,-0.011 -5.71178,0.031 -11.4235,0 -17.13531,0.013 -5.533159,0.1697 -10.992279,0.034 -16.473517,-0.7098 -4.518884,-0.6955 -9.076285,-1.0181 -13.64157,-1.1735 -4.123959,-0.1968 -8.263449,0.2076 -12.343408,-0.4658 -4.980968,-0.562 -9.851101,-1.6271 -14.771575,-2.5455 -4.259308,-0.7736 -8.586762,-0.954 -12.904414,-1.048 -4.000494,-0.054 -8.001534,-0.034 -12.002258,-0.025 -3.995545,0.01 -7.9911,0.012 -11.986654,0.014 -4.3691167,0.1673 -8.443483,-1.6788 -11.9196851,-4.1806 -2.4181015,-2.6889 -5.4859352,-4.6266 -8.0808064,-7.1129 -2.2182675,-1.654 -4.1256855,-3.6454 -6.1894485,-5.4834 0,0 25.1787766,-15.6441 25.1787766,-15.6441 l 0,0 c 2.0958764,1.8379 4.0767684,3.7949 6.2696704,5.5198 2.554924,2.2865 5.273666,4.3846 7.752193,6.7578 3.36097,2.0395 6.980608,3.0304 10.938727,2.7408 3.99519,0 7.990375,-0.01 11.98556,-0.017 4.018379,0 8.038105,-0.02 12.05482,0.1147 4.397371,0.1968 8.789736,0.566 13.104903,1.4792 4.858564,0.9777 9.733555,1.7968 14.665764,2.3149 4.08569,0.1888 8.179263,0.072 12.264757,0.2998 4.579555,0.2647 9.135125,0.7596 13.673785,1.4288 5.40178,0.5965 10.81744,0.4124 16.2448,0.4291 5.69987,0.015 11.39966,-0.018 17.0995,0.013 5.73994,0 11.47989,-0.035 17.21983,-0.011 5.79136,0.01 11.58272,0.011 17.37406,-0.01 5.59861,0.015 11.19719,0 16.79579,0.013 6.1439,0.012 12.28783,0 18.4317,0.032 6.81632,-0.01 13.63261,0 20.44893,-0.013 6.78081,0.016 13.56168,-2e-4 20.34249,0.026 7.01931,-0.011 14.03863,-0.016 21.05791,-0.028 5.64379,-0.023 11.28764,-0.051 16.93146,-0.028 5.83583,0.018 11.67167,0 17.50747,0.029 6.68583,0.019 13.37163,0.01 20.05746,-0.01 6.03871,0.01 12.07741,-0.023 18.11612,-0.014 5.34838,-0.016 10.69683,-0.023 16.04521,-0.019 5.21611,0.01 10.43224,10e-4 15.64834,0 5.08447,0.012 10.16886,0.01 15.25331,-0.012 5.3882,0.019 10.77636,0.052 16.16461,0.057 6.04483,-0.015 12.0898,-0.022 18.13458,0 7.19258,0.029 14.38578,0.062 21.57788,-0.047 7.9673,-0.1454 15.9366,-0.3881 23.87599,-1.1124 7.68626,-0.6565 15.36472,-1.0474 23.0839,-0.8186 7.47883,0 14.95761,0.038 22.43645,0.01 6.82715,-0.024 13.65709,-0.036 20.4801,-0.2988 6.06023,-0.3041 12.08943,-0.8575 18.10286,-1.6761 6.78779,-0.4484 13.61173,-0.4288 20.36646,-1.3426 6.27025,-0.7949 12.54922,-1.3852 18.83577,-2.0258 6.6322,-0.8842 13.27893,-1.4096 19.94556,-1.9596 7.0559,-0.8089 14.11468,-1.4119 21.19587,-1.9472 5.99312,-0.6392 11.97824,-1.0375 18.01189,-0.816 5.93226,-0.01 11.86451,0.041 17.7968,0.027 6.3416,-0.012 12.68313,-0.038 19.02472,-0.047 6.12083,0 12.24617,0.011 18.35908,0.3593 8.94278,0.5581 17.85661,1.4864 26.69379,2.9945 9.1876,1.4023 18.39792,2.7005 27.52923,4.4383 0,0 -24.37387,16.8121 -24.37387,16.8121 z"
       inkscape:connector-curvature="0" />
    <path
       style="fill:#4d4d4d"
       id="path3517"
       d="m -19.358342,1055.6083 c -0.612905,-5.6294 -1.164893,-11.2627 -1.516735,-16.9148 -0.254491,-4.4176 -0.299075,-8.8431 -0.321588,-13.2667 -0.0103,-4.0018 -0.0017,-8.0036 0.0023,-12.0054 0.0039,-3.9934 0.0048,-7.9868 0.0053,-11.9802 0.0022,-4.40574 0.03297,-8.8111 0.02666,-13.21685 -0.04363,-4.75433 0.02449,-9.50825 0.03581,-14.26244 0.06104,-6.61236 0.06309,-13.22475 0.06681,-19.83727 -0.02066,-5.4701 -0.07505,-10.93998 -0.104896,-16.41003 -0.03302,-4.49974 -0.01019,-8.99946 0.02608,-13.49909 0.05564,-6.36988 0.08021,-12.74031 0.06395,-19.11044 -0.0014,-5.73903 -0.06813,-11.47813 -0.05414,-17.21715 0.03157,-5.69611 8.01e-4,-11.39227 0.02073,-17.08844 0.01506,-5.52395 -0.0099,-11.04772 -0.04055,-16.57159 -0.02503,-4.27329 -0.03367,-8.54665 -0.03828,-12.82001 -0.0031,-3.99337 -0.0026,-7.98674 -0.0024,-11.9801 0.04515,-5.22804 0.05797,-10.45622 0.09358,-15.68435 -0.100573,-6.09286 0.882804,-12.12988 1.382892,-18.1904 0.370512,-4.68501 0.473318,-9.38419 0.522346,-14.08164 0.01609,-4.62084 0.06149,-9.24148 0.06545,-13.86237 -0.0072,-5.4669 0.02111,-10.93366 -1.22e-4,-16.40057 -0.0047,-5.06177 -0.01391,-10.12352 -0.03468,-15.18532 -0.174744,-4.3009 0.789276,-8.52217 1.343072,-12.76363 0.484442,-4.12289 0.581767,-8.27833 0.646547,-12.42506 0.07858,-5.3606 0.04616,-10.7221 0.06605,-16.08313 -0.0055,-5.0166 -0.04411,-10.03308 -0.06507,-15.04963 -0.01572,-4.09823 -0.01811,-8.1965 -0.01965,-12.29475 -0.125917,-2.08642 0.160458,-4.1466 0.462883,-6.20236 0,0 26.5908648,-13.0035 26.5908648,-13.0035 l 0,0 c -0.3537794,1.90954 -0.8611009,3.80418 -0.6761475,5.76581 -0.00156,4.10444 -0.00407,8.20889 -0.018293,12.31331 -0.018641,5.03533 -0.052761,10.07063 -0.04948,15.10601 0.02886,5.35449 0.020782,10.70896 0.042145,16.06345 -0.017528,4.23375 -0.013737,8.4747 -0.4476238,12.69191 -0.4681357,4.16832 -1.5075857,8.27844 -1.5557918,12.47112 -0.020753,5.07314 -0.030072,10.14622 -0.033326,15.21935 -0.019098,5.46353 0.011891,10.92686 0.015462,16.39037 0.012321,4.61572 0.084752,9.23133 0.041538,13.84706 -0.054412,4.78647 -0.171561,9.57446 -0.5717931,14.34663 -0.5096548,5.9937 -1.4277769,11.97142 -1.5158147,17.98213 0.035647,5.19633 0.048341,10.39273 0.093584,15.58898 1.494e-4,3.9942 6.534e-4,7.98839 -0.00245,11.98259 -0.00462,4.28636 -0.013305,8.57273 -0.038279,12.85903 -0.030571,5.53763 -0.055586,11.07517 -0.040546,16.6129 0.019971,5.68913 -0.010899,11.37825 0.020726,17.06732 0.014065,5.75741 -0.052798,11.5149 -0.054143,17.27233 -0.016162,6.3484 0.00797,12.69712 0.063948,19.04527 0.036503,4.49077 0.058992,8.98163 0.026082,13.47251 -0.029873,5.50568 -0.084152,11.01119 -0.1048974,16.51692 0.00371,6.58983 0.00556,13.17952 0.066822,19.76918 0.011334,4.742 0.079624,9.48373 0.035929,14.22587 -0.00623,4.39686 0.024631,8.79332 0.026394,13.19012 -1.942e-4,3.99396 -3.892e-4,7.98793 -0.00324,11.98189 -0.00339,4.00036 -0.00989,8.00066 -0.015551,12.00106 -0.00108,4.3952 -0.00418,8.7918 0.1549986,13.1849 0.2410204,5.5526 0.5967694,11.1155 1.5547704,16.5977 0,0 -26.2382155,13.8415 -26.2382155,13.8415 z"
       inkscape:connector-curvature="0" />
    <path
       style="fill:#4d4d4d"
       id="path3519"
       d="m 17.217485,657.3022 c -0.184767,5.59695 -0.113326,11.1989 -0.08154,16.79783 0.02857,4.40022 0.04209,8.80051 0.04907,13.20081 0.241758,4.18233 -0.354535,8.28849 -1.273319,12.35417 -1.233247,3.83 -2.002022,7.74976 -2.413112,11.7452 -0.257637,4.10762 -1.043115,8.17422 -1.870977,12.20089 -1.179611,4.92306 -3.0039376,9.65734 -4.6803537,14.42494 -2.2676564,6.35006 -3.2529768,13.05253 -4.6497434,19.62618 -2.11871572,8.77596 -3.5480308,17.68415 -5.2821586,26.53802 -2.4673059,11.79135 -3.2662765,23.83018 -4.3901903,35.79972 -0.8673784,13.18572 -2.1136798,26.33374 -3.516661,39.47201 -2.722778,18.7357 -5.348946,37.48166 -8.064181,56.21803 -3.957246,22.72214 -4.905004,45.76573 -6.641614,68.71484 -1.991535,23.04526 -2.932187,46.15366 -3.568667,69.26946 0,0 -24.335737,12.3108 -24.335737,12.3108 l 0,0 c 0.705968,-23.1138 1.591126,-46.2273 3.348881,-69.28922 1.553044,-22.93428 2.190433,-45.97387 6.139043,-68.67853 2.566801,-18.60364 5.115291,-37.20491 7.531959,-55.83 1.254529,-13.11462 2.564365,-26.21972 3.367721,-39.37316 1.116497,-12.01359 1.814575,-24.10108 4.085946,-35.96922 1.708132,-8.81735 2.854005,-17.72879 4.986844,-26.46175 1.459107,-6.62479 2.265033,-13.41105 4.35175,-19.8788 1.60658,-4.67982 3.332126,-9.31684 4.636715,-14.09161 1.08906,-3.81262 1.623626,-7.87127 2.057333,-11.79661 0.310121,-4.14063 0.848435,-8.26698 2.195909,-12.2169 1.2026054,-3.7554 1.7730038,-7.70973 1.614583,-11.65226 0.00699,-4.41697 0.020565,-8.83392 0.049068,-13.25081 0.031449,-5.5712 0.1047563,-11.14558 -0.081538,-16.71474 0,0 26.43497,-13.46929 26.43497,-13.46929 z"
       inkscape:connector-curvature="0" />
    <path
       style="fill:#4d4d4d"
       id="path3523"
       d="m 753.1964,5.5521798 c -0.26881,7.4481842 -0.20103,14.9046692 -0.14036,22.3561472 0.0535,5.116267 0.098,10.232593 0.11989,15.349096 0.014,4.025284 0.0139,8.050598 0.0141,12.0759 -1.9e-4,3.984157 -7.1e-4,7.968314 -9.8e-4,11.952471 0.002,4.795031 -0.0469,9.589808 -0.0774,14.384738 -0.0168,5.97861 -0.002,11.957241 -0.0164,17.935848 7.7e-4,6.01976 0.0155,12.03956 0.001,18.05932 -0.0252,6.06347 0.0198,12.12688 0.005,18.1904 -0.008,6.60442 -0.0319,13.20881 -0.0545,19.81323 -0.0428,7.46249 -10e-4,14.92491 -0.004,22.38741 -0.22354,7.08509 0.14858,14.1251 0.85582,21.17019 0.74396,6.81417 0.95876,13.66189 1.07076,20.51008 0.0828,7.75119 0.0634,15.50304 0.0576,23.25455 -0.0104,7.72464 -0.0268,15.44911 0.0366,23.17356 0.0496,6.08729 0.0277,12.17451 0.0376,18.26185 -0.0198,6.52851 -0.0221,13.05695 -0.045,19.58547 -0.0452,7.35466 -0.007,14.70928 -0.0116,22.06397 0.33806,6.47796 1.17007,12.91466 1.66264,19.38281 0.38644,4.98958 0.4325,9.99407 0.42928,14.99562 -0.24307,5.52863 0.22484,10.99469 0.795,16.48418 0.73606,7.33041 0.89296,14.70017 1.01138,22.06111 0.11217,8.18793 0.0689,16.37652 0.0519,24.5648 -0.0654,9.7823 -0.0815,19.56478 -0.0575,29.34726 0.0312,8.6858 0.0537,17.37162 0.0656,26.05747 -0.0114,7.7173 0.0376,15.43441 0.0391,23.15166 -0.0107,6.47393 -0.0982,12.92503 0.54438,19.37105 0.74133,5.54238 1.18998,11.10717 1.37937,16.69384 0.18165,6.02218 0.14462,12.04799 0.11753,18.072 0.0108,7.02699 -0.0295,14.05394 -0.048,21.08089 -0.27957,7.67749 0.13737,15.30222 0.84895,22.94024 0.79985,7.07176 0.76964,14.19497 1.27401,21.28371 0.72549,7.18181 1.35097,14.37006 1.6715,21.58189 0.30382,7.10925 0.0175,14.22928 0.43038,21.33256 0.42629,5.90609 1.32388,11.72863 2.43525,17.53715 0.55509,3.19623 0.30282,1.61559 0.76016,4.74137 0,0 -26.14258,13.76342 -26.14258,13.76342 l 0,0 c -0.37322,-3.05297 -0.16137,-1.50461 -0.63998,-4.64445 -1.04768,-5.94697 -2.06933,-11.87603 -2.42594,-17.91759 -0.56033,-7.11214 -0.15953,-14.26053 -0.50254,-21.38746 -0.26509,-7.18461 -0.71546,-14.35988 -1.55809,-21.50285 -0.66188,-7.06961 -0.51221,-14.19192 -1.26087,-21.2607 -0.69686,-7.72119 -1.24268,-15.42533 -0.95655,-23.1871 -0.0131,-7.01377 -0.0428,-14.02757 -0.0255,-21.04134 -0.0302,-5.9779 -0.0385,-11.95648 -0.16955,-17.93321 -0.19135,-5.52776 -0.52215,-11.04854 -1.22295,-16.53868 -0.73444,-6.55466 -0.73211,-13.10018 -0.59463,-19.69346 10e-4,-7.73052 0.0503,-15.46089 0.0389,-23.19145 0.0121,-8.70901 0.035,-17.418 0.0694,-26.12696 0.0281,-9.76671 0.0196,-19.53346 -0.0355,-29.30007 -0.0123,-8.1613 -0.0284,-16.32288 -0.10538,-24.48384 -0.11683,-7.25562 -0.26384,-14.52232 -1.03319,-21.74421 -0.63729,-5.56668 -1.34686,-11.09587 -1.01213,-16.71724 -0.0481,-4.95099 -0.0703,-9.90426 -0.31231,-14.85067 -0.37259,-6.55753 -1.10516,-13.08065 -1.61243,-19.62784 -0.004,-7.35073 0.0336,-14.7014 -0.0117,-22.05211 -0.0229,-6.51325 -0.0253,-13.02642 -0.045,-19.53967 0.0101,-6.10109 -0.0114,-12.20206 0.0414,-18.30309 0.0677,-7.74058 0.0599,-15.48126 0.0587,-23.2221 -8.8e-4,-7.72466 0.007,-15.44977 -0.10041,-23.17386 -0.12767,-6.77191 -0.3277,-13.54741 -0.98567,-20.29239 -0.67202,-7.14106 -1.29495,-14.25316 -0.95559,-21.43824 -0.003,-7.46119 0.0389,-14.9223 -0.004,-22.38348 -0.0226,-6.58591 -0.0464,-13.17179 -0.0545,-19.7577 -0.0145,-6.06532 0.0305,-12.13053 0.005,-18.19582 -0.0142,-6.0202 5.9e-4,-12.04046 10e-4,-18.06067 -0.0145,-5.97304 3.9e-4,-11.9461 -0.0164,-17.919146 -0.0305,-4.768651 -0.08,-9.537145 -0.0774,-14.305899 -2.7e-4,-3.983824 -7.9e-4,-7.967648 -9.8e-4,-11.951473 2.8e-4,-4.030105 1.1e-4,-8.060222 0.0141,-12.090308 0.0219,-5.157225 0.0665,-10.314273 0.11989,-15.471265 0.0598,-7.403743 0.13167,-14.812798 -0.14036,-22.213118 0,0 26.3928,-13.4478012 26.3928,-13.4478012 z"
       inkscape:connector-curvature="0" />
    <path
       style="fill:#4d4d4d"
       id="path3525"
       d="m 763.07097,671.49117 c -1.12164,6.53038 -1.45372,13.16402 -1.71834,19.77472 -0.17748,4.76559 0.0204,9.52395 -0.65009,14.25411 -0.7342,3.91998 -1.13847,7.88012 -1.3564,11.85853 -0.0407,4.07153 -1.00047,8.04792 -1.54097,12.06769 -0.47951,3.93124 -0.55487,7.89458 -0.60843,11.84974 -0.0405,4.07817 -0.004,8.15652 -0.0381,12.23468 -0.005,5.19504 -0.0233,10.38998 -0.0592,15.58491 -0.0164,6.14753 0.004,12.29506 -0.007,18.44259 -0.0478,6.88024 -0.0257,13.7605 -0.0379,20.64081 -0.0198,7.61442 -0.0305,15.22887 -0.0366,22.84331 0.0402,7.15767 0.008,14.31523 0.0614,21.47284 0.0101,5.87173 0.0208,11.74335 0.0564,17.615 -0.0245,5.73519 -0.0433,11.47031 -0.0179,17.20553 -0.0234,5.67446 0.0145,11.34897 -8e-4,17.0234 10e-4,5.99313 -0.0362,11.9861 -0.021,17.97926 -0.002,5.68484 0.0233,11.36958 0.0335,17.0544 0.0184,4.6039 0.0396,9.20777 0.0506,13.81169 0.008,4.44026 -0.0239,8.88023 -0.0171,13.32054 0.0105,4.24509 0.0184,8.49018 0.0227,12.73527 0.003,4.01081 0.003,8.02162 0.004,12.03242 4e-5,3.99686 -8e-5,7.99371 -1.3e-4,11.99059 -5e-5,3.9996 -6e-5,7.9992 -6e-5,11.9989 0.20731,4.1209 -0.1208,8.1633 -0.79811,12.2219 -0.64138,4.0201 -1.65034,7.9784 -2.61398,11.9327 -0.91168,3.1607 -1.93987,6.2623 -3.73718,9.0356 -1.869,3.0622 -4.86714,5.1468 -7.5753,7.4053 -3.731,2.6665 -7.18017,5.6788 -10.55018,8.7806 -4.21412,4.1807 -8.58839,8.1675 -13.09323,12.0309 -13.72233,11.4297 -30.16955,19.4245 -45.50608,28.2309 -4.36173,2.8329 -9.16628,4.7622 -14.07658,6.3888 0,0 23.13311,-18.05 23.13311,-18.05 l 0,0 c 4.72847,-1.8149 9.28886,-3.9744 13.60934,-6.637 -43.44924,25.2132 -13.30517,8.6705 -4.32981,1.099 4.40723,-3.8797 8.95424,-7.5837 12.98929,-11.8676 3.29408,-3.1483 6.59391,-6.3219 10.28735,-9.0061 2.7987,-1.9256 5.36155,-4.1655 7.91598,-6.4133 1.68786,-2.6767 3.51884,-5.1195 4.13483,-8.3446 1.42716,-3.6702 1.88843,-7.7749 2.81963,-11.5888 0.66478,-3.9254 1.36866,-7.7672 1.0133,-11.7783 0,-3.9996 -10e-6,-7.9992 -6e-5,-11.9988 -5e-5,-3.9968 -1.7e-4,-7.9936 -1.3e-4,-11.9904 1.4e-4,-4.012 2.3e-4,-8.02403 0.004,-12.03603 0.004,-4.25279 0.0122,-8.50558 0.0227,-12.75837 0.007,-4.43451 -0.0248,-8.86867 -0.0171,-13.30313 0.0111,-4.62111 0.0322,-9.24218 0.0506,-13.86327 0.0102,-5.69622 0.0353,-11.39235 0.0335,-17.08859 0.0151,-5.98603 -0.0222,-11.97186 -0.021,-17.95786 -0.0153,-5.67416 0.0227,-11.34839 -8e-4,-17.02258 0.0252,-5.72915 0.007,-11.4582 -0.0179,-17.18732 0.0355,-5.89082 0.0464,-11.78162 0.0564,-17.67252 0.0529,-7.17844 0.0214,-14.35685 0.0614,-21.53535 -0.006,-7.60202 -0.0168,-15.20403 -0.0366,-22.80602 -0.0122,-6.86746 0.01,-13.73488 -0.0377,-20.60227 -0.0118,-6.14463 0.009,-12.28927 -0.009,-18.43391 -0.0376,-5.17115 -0.0586,-10.34231 -0.0747,-15.51356 -0.043,-4.08131 -0.0313,-8.16302 -0.02,-12.24451 0.0325,-4.05147 0.0736,-8.10943 0.46294,-12.14573 0.44379,-3.97843 1.42331,-7.88138 1.63624,-11.86696 0.16213,-4.07714 0.44266,-8.15515 1.22807,-12.16754 0.84655,-4.65242 0.83008,-9.30885 0.96544,-14.03323 0.33573,-6.64482 0.82722,-13.27935 1.35316,-19.91163 0,0 26.62041,-13.09135 26.62041,-13.09135 z"
       inkscape:connector-curvature="0" />
    <path
       style="fill:#4d4d4d"
       id="path3527"
       d="m 7.3083518,17.193521 c 4.6859502,-1.539998 8.8770432,-4.10077 13.1918372,-6.417777 -48.688996,28.437394 -10.451848,5.449131 6.466126,-3.7077894 2.014251,-1.0902217 4.17359,-1.8261405 6.242838,-2.8011201 4.023442,-1.4775666 7.986565,-3.0424284 12.20215,-3.88998346 4.026351,-0.67110362 8.118021,-0.70869268 12.188621,-0.74643102 3.928915,-0.91128722 7.91756,-1.43274132 11.934615,-1.73073812 4.563648,-0.192372 9.131742,-0.2238954 13.698733,-0.2422227 4.09043,-0.19461 8.254356,0.4196809 12.285318,-0.3792978 3.960847,-0.8861299 7.99836,-1.2583099 12.04267,-1.4733838 5.50571,-0.1774315 11.0179,-0.09889 16.52562,-0.059681 8.71158,0.340537 17.379,-0.6521603 26.05855,-1.2332062 7.27721,-0.4626217 14.56658,-0.6631573 21.85623,-0.7884036 5.02723,-0.069315 10.05541,-0.060494 15.08298,-0.037856 5.70576,-0.00826 11.41138,0.031503 17.11706,0.054953 6.77013,0.015573 13.54039,0.00807 20.31052,-0.011606 6.41738,-0.029411 12.83488,0.00951 19.25227,0.025592 7.76276,0.01758 15.52554,0.020501 23.28832,0.022734 6.40227,-0.4373775 12.67652,0.2448332 19.01356,0.9819146 6.53893,0.5358714 13.05993,0.8368527 19.57489,1.6255289 5.81509,0.7904981 11.67283,1.0970945 17.53403,1.249035 5.60773,0.1099598 11.21728,0.10043 16.82584,0.081755 5.53421,-0.2501374 10.98123,0.8469215 16.48085,1.33656832 6.96708,0.55213749 13.95903,0.63019943 20.94393,0.69886957 7.879,0.0521618 15.75825,0.0406438 23.63738,0.0369575 8.00821,-0.004892 16.01643,-0.007426 24.02465,-0.008851 6.7017,-0.0223772 13.40338,-0.0428901 20.10508,-0.0629427 5.87378,-0.0106973 11.74737,-0.006881 17.62113,0.0155831 6.51719,9.23e-5 13.03434,0.014785 19.55153,-0.001703 6.05707,-0.0176898 12.11413,-0.003133 18.1712,-0.009391 5.99097,0.0292312 11.98187,0.00237 17.97278,-0.0242873 4.38184,-0.0209058 8.76372,-0.0288453 13.1456,-0.0329133 5.95151,0.0437595 11.90305,0.0749651 17.85469,0.0930836 6.41887,0.0253762 12.83768,-0.0287082 19.25642,-0.062338 6.63196,0.0102352 13.26377,0.0592279 19.89561,0.0968051 10.39284,0.0673528 20.78579,0.0849807 31.17879,0.0608356 7.27954,-0.0486866 14.55878,-0.11284787 21.83841,-0.1412671 6.5988,0.009084 13.19756,0.037208 19.79636,0.0508622 6.51332,0.0312526 13.02637,-0.054556 19.53962,-0.053751 4.81312,-0.0093 9.62621,-0.0277139 14.43932,-0.0374738 4.29758,-0.0944708 8.60653,0.24830869 12.87233,-0.32462249 7.07677,-0.7607795 14.16442,-1.2470721 21.23988,-2.0292974 7.76484,-0.8522679 15.56661,-1.2469989 23.37043,-1.5029867 5.19049,0.2876001 10.22668,-0.5936838 15.34833,-1.1846095 7.29769,-0.6979683 14.63696,-0.7268245 21.96116,-0.7787525 9.77512,0.3035309 19.49595,-0.3108888 29.23509,-1.0324583 1.44137,-0.1061963 2.88274,-0.2123926 4.32411,-0.3185889 0,0 -23.46332,17.2960091 -23.46332,17.2960091 l 0,0 c -1.41832,0.091678 -2.83664,0.1833552 -4.25496,0.2750336 -9.78607,0.669481 -19.56662,1.00604 -29.378,0.930768 -7.3587,0.152125 -14.73782,0.290322 -22.04614,1.246607 -5.12996,0.699468 -10.24079,0.993834 -15.42406,0.896032 -7.70915,0.225338 -15.4133,0.664814 -23.07534,1.575915 -7.17152,0.804858 -14.36764,1.317651 -21.53297,2.181148 -4.36461,0.242025 -8.73345,0.150562 -13.10362,0.153846 -4.77873,-0.0097 -9.55743,-0.02819 -14.33617,-0.03747 -6.46392,7.99e-4 -12.92765,-0.0853 -19.39165,-0.05375 -6.64547,0.01367 -13.2909,0.04173 -19.93637,0.05086 -7.15001,-0.02822 -14.29962,-0.09237 -21.44953,-0.141267 -10.44883,-0.02443 -20.8976,-0.0057 -31.34626,0.06084 -6.72067,0.0375 -13.44132,0.08631 -20.16209,0.0968 -6.36154,-0.03382 -12.72315,-0.08806 -19.08482,-0.06234 -6.03705,0.01823 -12.07401,0.04958 -18.11093,0.09308 -4.35168,-0.0041 -8.70336,-0.01191 -13.055,-0.03291 -5.96862,-0.02689 -11.93724,-0.05348 -17.90592,-0.02429 -6.04845,-0.0063 -12.09689,0.0083 -18.14535,-0.0094 -6.51561,-0.0166 -13.03118,-0.0017 -19.5468,-0.0018 -5.88797,0.02224 -11.77578,0.02627 -17.66378,0.01543 -6.64473,-0.01998 -13.28943,-0.04031 -19.93417,-0.06056 -8.00834,0.0016 -16.01667,0.0044 -24.025,0.01036 -7.89702,0.0048 -15.7942,0.01928 -23.69108,-0.03764 -7.05862,-0.07797 -14.12657,-0.172405 -21.15997,-0.832837 -5.46787,-0.506503 -10.91989,-1.287112 -16.42737,-1.046493 -5.61804,-0.01807 -11.2368,-0.01549 -16.853,-0.183191 -5.88369,-0.238464 -11.75312,-0.667311 -17.58512,-1.511273 -6.53442,-0.730583 -13.10847,-0.829798 -19.64339,-1.56985 -6.2061,-0.699011 -12.40109,-1.022545 -18.65302,-0.829491 -7.78366,0.0022 -15.56732,0.0052 -23.35096,0.02278 -6.44095,0.01607 -12.88201,0.05502 -19.32296,0.02574 -6.75876,-0.01986 -13.51763,-0.02721 -20.27639,-0.01398 -5.74832,0.02082 -11.49662,0.05646 -17.245,0.03576 -5.00284,0.01399 -10.00575,-4.41e-4 -15.00855,0.03643 -7.17904,0.07194 -14.35828,0.253049 -21.52276,0.740554 -8.75236,0.602232 -17.5007,1.382171 -26.28492,1.158519 -5.560241,0.05364 -11.127329,0.04328 -16.677953,0.416276 -4.012522,0.338908 -7.974346,0.982718 -11.953056,1.586606 -4.149111,0.188233 -8.303906,0.04177 -12.456291,0.09276 -4.527665,0.02739 -9.06494,0.04355 -13.576518,0.468894 -4.035402,0.440822 -8.011879,1.309154 -12.063834,1.557788 -3.956062,0.108696 -7.939913,0.271303 -11.793912,1.25729 -4.03763,1.142925 -7.979131,2.647373 -11.826395,4.316912 -2.0725074,0.916661 -4.0593165,1.889808 -6.0424764,2.987309 -0.7093368,0.392554 -2.8277112,1.587243 -2.1269336,1.179606 15.60936,-9.079849 50.561347,-29.2208007 -4.3550878,2.458207 -4.4145483,2.431557 -8.9927472,4.783156 -13.9741512,5.777858 0,0 23.7458898,-17.858899 23.7458898,-17.858899 z"
       inkscape:connector-curvature="0" />
    <path
       style="fill:#4d4d4d"
       id="path3529"
       d="m 17.797005,2.0541736 c 5.493308,0.8881859 11.052568,1.2466704 16.606427,1.48074 4.407275,0.1540497 8.817851,0.1479319 13.227158,0.1454954 3.456987,0.8279306 6.928492,1.4423527 10.470808,1.7362336 1.870437,0.1342897 3.745378,0.1725206 5.619453,0.2150636 0,0 -24.017061,17.3310308 -24.017061,17.3310308 l 0,0 c -1.922565,-0.08041 -3.846626,-0.15729 -5.760364,-0.371182 -3.438616,-0.422102 -6.80579,-1.286961 -10.26054,-1.520994 -4.409678,-0.02383 -8.821125,-0.0713 -13.224465,-0.33109 -5.6510102,-0.359423 -11.28488367,-0.907991 -16.9061442,-1.590766 0,0 24.2447282,-17.0945314 24.2447282,-17.0945314 z"
       inkscape:connector-curvature="0" />
    <path
       style="fill:#4d4d4d"
       id="path3531"
       d="m 35.675867,-10.357196 c 6.306115,0.6951333 12.528718,1.8307624 18.791303,2.8285661 3.926065,0.5322018 1.996955,0.1803776 5.789067,1.0459031 0,0 -24.174891,16.8082928 -24.174891,16.8082928 l 0,0 C 32.415564,9.6205878 34.298057,9.9521943 30.432329,9.339522 24.222862,8.2772335 17.993576,7.150504 11.673416,7.0816055 c 0,0 24.002451,-17.4388015 24.002451,-17.4388015 z"
       inkscape:connector-curvature="0" />
    <path
       style="fill:#4d4d4d"
       id="path3533"
       d="m 739.7515,2.3003874 c 2.98583,5.0266006 5.72369,10.1746716 8.19523,15.4733566 1.8107,4.25023 4.62417,7.932256 6.81608,11.964904 2.02528,2.932375 3.52059,6.195001 4.72605,9.537986 1.74229,3.017909 2.37156,6.410313 3.36952,9.690128 1.27769,3.346458 1.78839,6.869131 2.09501,10.41545 0.0873,0.592878 0.17449,1.185756 0.26173,1.778634 0,0 -26.15161,13.903695 -26.15161,13.903695 l 0,0 c -0.13581,-0.675139 -0.27163,-1.350278 -0.40744,-2.025417 -0.22766,-3.330557 -0.5947,-6.656825 -1.81389,-9.795646 -1.05484,-3.228596 -1.49164,-6.65176 -3.28728,-9.627434 -1.10403,-3.225194 -2.64294,-6.291402 -4.49217,-9.154774 -2.15054,-4.121429 -4.94248,-7.898219 -6.77192,-12.198726 -2.32101,-5.194819 -4.86697,-10.287546 -8.12843,-14.967709 0,0 25.58912,-14.9944476 25.58912,-14.9944476 z"
       inkscape:connector-curvature="0" />
    <path
       style="fill:#4d4d4d"
       id="path3537"
       d="m 727.61485,-3.5458194 c 2.23148,5.0709303 5.23598,9.6627807 8.40441,14.1805874 2.3908,3.532659 5.17212,6.745289 7.84903,10.050369 2.21764,3.217578 4.51721,6.29641 7.04236,9.277943 2.57591,2.978708 4.87396,6.112958 6.82706,9.529084 1.91819,3.755003 3.96265,7.420636 5.81242,11.212006 0,0 -25.70426,14.612559 -25.70426,14.612559 l 0,0 c -1.84267,-3.721396 -3.8311,-7.336781 -5.77015,-11.006843 -1.89219,-3.237501 -4.04041,-6.277922 -6.53426,-9.090347 -2.53287,-3.000311 -4.8302,-6.130311 -7.1252,-9.30957 -2.70153,-3.36933 -5.34573,-6.770162 -7.81121,-10.319855 -3.2002,-4.661364 -6.08097,-9.486654 -8.78449,-14.449072 0,0 25.79429,-14.6868614 25.79429,-14.6868614 z"
       inkscape:connector-curvature="0" />
    <path
       style="fill:#4d4d4d"
       id="path3539"
       d="M -0.37445631,12.808677 C 13.488481,5.1483941 26.77431,-4.375286 41.654432,-10.20298 c 4.526728,-1.648885 9.019674,-3.110759 13.805133,-3.763317 3.58097,-0.510991 6.990749,-1.637551 10.620613,-2.043915 3.874936,-0.225575 7.801004,-0.657586 11.637254,0.03692 3.824174,0.701348 7.483277,2.499943 10.688782,4.673696 3.091889,1.7227031 5.782024,4.0826267 8.970451,5.6207704 2.973175,1.1052548 5.823175,2.4867532 8.685785,3.8525994 2.31719,1.91438085 5.15822,2.8768081 7.86611,4.0881956 0.49753,0.2881869 0.99506,0.5763737 1.49258,0.8645605 0,0 -24.835996,16.2380661 -24.835996,16.2380661 l 0,0 C 90.11264,19.132028 89.640135,18.899463 89.16763,18.666897 86.471632,17.389123 83.703699,16.29158 81.268932,14.527054 78.404728,13.110008 75.420118,11.953775 72.547854,10.549733 69.456695,8.7276542 66.578196,6.5620964 63.479299,4.7455056 60.411714,2.9653907 57.158706,1.4381574 53.572758,1.1611581 49.825664,1.0314223 46.060724,1.2232771 42.34906,1.7656295 38.827179,2.410747 35.398133,3.4844602 31.820195,3.8250662 27.261229,4.7634787 22.891023,6.337505 18.556153,8.0173778 15.675055,9.2997474 12.862139,10.682635 10.063429,12.137368 9.0594294,12.659235 6.0864147,14.296433 7.0623347,13.723772 22.806628,4.4851606 37.624617,-3.8332991 27.24527,2.0018565 c 0,0 -27.61972631,10.8068205 -27.61972631,10.8068205 z"
       inkscape:connector-curvature="0" />
    <path
       style="fill:#4d4d4d"
       id="path3541"
       d="m 3.6148475,1000.4542 c 2.1387271,4.9779 3.8517853,10.1379 6.0246003,15.0976 1.2092372,3.3559 2.8126332,6.4393 4.7465772,9.4155 1.792581,1.9555 3.313216,4.2138 5.661825,5.5342 2.179521,1.9013 4.729149,3.2404 7.052982,4.9178 2.369641,1.6247 4.718032,3.2377 7.213218,4.6834 1.910476,0.582 3.673456,1.4222 5.513851,2.1931 0,0 -24.713326,16.47 -24.713326,16.47 l 0,0 c -1.921978,-0.8412 -3.932977,-1.4874 -5.7559379,-2.5377 -2.4618163,-1.5637 -4.8995054,-3.1415 -7.2944447,-4.8035 -2.43214401,-1.5244 -4.7302696,-3.2135 -7.0477288,-4.9072 -2.4315922,-1.8453 -4.4004992,-4.1752 -6.2775106,-6.5717 -2.01162,-3.1342 -3.63684,-6.4023 -4.840574,-9.9397 -2.063243,-4.9352 -3.64381,-10.0832 -6.07782,-14.865 0,0 25.7942885,-14.6868 25.7942885,-14.6868 z"
       inkscape:connector-curvature="0" />
    <path
       style="fill:#4d4d4d"
       id="path3545"
       d="m 755.10717,963.27263 c -0.63149,4.7582 -1.79454,9.40487 -2.78531,14.09358 -0.60785,3.79351 -0.9699,7.58152 -1.85129,11.32624 -0.85963,3.50351 -1.06558,7.10824 -1.20452,10.69819 0.11279,4.06706 -0.4312,8.06876 -1.32842,12.02496 -0.83118,3.2366 -2.27144,6.2315 -3.58241,9.2855 -1.42924,2.8655 -2.83428,5.7117 -4.55661,8.417 -8.15268,10.9699 -22.09121,15.5785 -33.5432,22.1829 -3.79887,1.2316 -7.7588,1.6264 -11.64392,2.5181 -3.33829,0.7321 -6.7488,0.9684 -10.15288,1.1361 0,0 23.83282,-17.5584 23.83282,-17.5584 l 0,0 c 3.32287,-0.2795 6.63257,-0.6923 9.87514,-1.4985 3.78988,-0.8302 7.7625,-1.1331 11.16763,-3.1729 -47.14156,27.4406 -28.37876,17.287 -20.61551,12.0034 1.5469,-1.0528 2.41603,-2.6671 3.91111,-3.7752 1.89051,-2.5184 3.41268,-5.2013 4.62678,-8.092 1.78303,-2.6329 2.73644,-5.8338 3.88972,-8.7774 1.41695,-3.5635 1.71006,-7.5231 1.68959,-11.3286 0.0853,-3.7437 0.18888,-7.5083 0.90862,-11.1951 0.83832,-3.76161 1.74427,-7.42493 1.97422,-11.29986 0.89725,-4.65835 2.46197,-9.1695 2.69563,-13.93804 0,0 26.69281,-13.04997 26.69281,-13.04997 z"
       inkscape:connector-curvature="0" />
    <path
       style="fill:#4d4d4d"
       id="path3547"
       d="m 78.507408,17.882168 c -4.541443,4.36171 -8.971488,8.829423 -13.237043,13.460452 -2.584832,2.975097 -5.358106,5.781658 -7.963588,8.735683 -2.187417,2.917797 -4.605148,5.645261 -6.752097,8.59563 -2.32672,3.15364 -4.410963,6.463852 -6.539762,9.750448 -2.437666,3.798519 -4.981706,7.510636 -7.096735,11.501654 -1.917166,3.932412 -3.9408,7.821569 -5.651125,11.849807 -1.740419,3.74253 -2.956673,7.614829 -3.59936,11.684854 -0.493668,3.92069 -0.494793,7.879894 -0.512656,11.824814 -0.961998,13.45901 -2.397885,7.94675 -27.54509676,16.39504 -0.78047544,0.26221 -0.25557106,-1.62802 -0.32756031,-2.44821 -0.092077,-1.04905 -0.10949398,-2.10332 -0.16424097,-3.15499 C -0.94514433,107.12048 -1.184689,98.152389 -0.82293065,89.200341 -0.42775419,83.29664 0.2094959,77.413995 0.56514157,71.507472 0.64506469,67.249432 1.4990524,63.059404 2.6634305,58.978625 3.7016731,55.119139 5.909359,52.105583 8.7015163,49.342681 12.145455,46.486124 16.00938,44.169294 19.820034,41.837674 30.542764,34.675796 42.020863,28.782502 53.09196,22.168189 60.774552,17.578302 21.978889,39.867665 29.834718,35.581029 39.040175,30.557951 48.039445,25.1659 57.141809,19.958335 c 3.888776,-2.231942 7.842219,-4.259273 12.194439,-5.394761 4.03632,-0.999221 8.001483,-2.060461 12.151628,-2.540743 9.593979,-3.390537 23.333114,-16.0211221 -22.223617,13.097492 -1.340041,0.856517 3.122052,1.968953 -0.205829,2.114413 -3.970339,-0.635092 -7.318689,0.427107 -10.966382,1.877181 -3.092279,1.444167 -6.344569,2.495326 -9.536209,3.692964 0,0 23.040629,-18.043446 23.040629,-18.043446 l 0,0 c 3.253377,-1.231346 6.49515,-2.490656 9.735622,-3.755552 4.013775,-1.2197367 7.983798,-1.6873271 12.14053,-0.825961 0.433233,0.148778 0.921649,0.187674 1.299698,0.446333 0.123267,0.08434 3.032042,2.773558 2.197366,3.341474 -13.639529,9.280364 -17.67817,13.944221 -29.177101,15.795028 -4.014596,0.698766 -7.927272,1.819881 -11.849225,2.912778 -4.127203,1.54182 -7.96101,3.713555 -11.836126,5.794002 78.340768,-45.4063222 -59.150523,33.806454 19.25284,-11.212188 6.169441,-3.542448 -12.221419,7.001031 -6.00017,3.902212 -3.733202,2.369004 -7.564854,4.58903 -11.205073,7.089709 -3.002065,2.108556 -5.303682,4.655614 -6.753416,8.05115 -1.169296,3.895503 -2.327901,7.857731 -2.427356,11.955156 -0.37649,5.974833 -1.134738,11.909163 -1.757076,17.8616 -0.643724,8.797202 -0.284417,17.643754 0.01283,26.451884 0.07024,0.96999 0.120515,1.94163 0.210728,2.90997 0.06322,0.67859 0.821902,1.6595 0.249431,2.02931 -8.428487,5.44469 -17.4975002,9.82722 -26.23656179,14.75803 -0.18768723,0.1059 0.47157526,-0.0973 0.58141062,-0.28272 0.3699535,-0.62451 0.6420808,-2.69119 0.7393011,-3.26456 0.001677,-4.05983 -0.0161112,-8.1278 0.34103407,-12.1756 0.4869028,-4.26803 1.3581219,-8.463184 3.320501,-12.328031 1.5030489,-4.213091 3.7202238,-8.091449 5.525772,-12.175738 2.160206,-4.042257 4.413794,-7.95619 6.954563,-11.777191 2.247012,-3.191164 3.970342,-6.725633 6.524999,-9.695534 1.899289,-3.231136 4.471855,-5.853734 6.556587,-8.920623 2.574123,-3.128352 5.477426,-5.898397 8.109097,-8.981148 4.385006,-4.417567 8.501477,-9.107431 12.993577,-13.430639 0,0 27.407161,-11.352418 27.407161,-11.352418 z"
       inkscape:connector-curvature="0" />
    <path
       style="fill:#4d4d4d"
       id="path3549"
       d="m 17.036705,51.239553 c 1.663977,-5.04665 3.054726,-10.181475 4.613906,-15.26224 1.088522,-3.064606 1.927144,-7.178862 5.013476,-8.98056 8.961212,-5.231259 18.031259,-10.273817 27.046888,-15.410726 3.801092,-1.247448 7.760223,-1.7143599 11.645598,-2.6386061 2.276541,-0.3362415 4.800332,-2.0102845 5.814217,1.1213751 0.662981,2.047799 -0.02861,2.479713 -0.957193,4.193346 -4.84649,6.069035 -9.407413,12.355121 -14.251957,18.426021 -4.027944,5.226508 -8.674722,9.889402 -13.276732,14.594633 -2.769715,2.641517 -5.481706,5.358121 -8.375677,7.863724 -10.226225,8.568102 -34.38111466,27.773393 -29.7534614,8.008602 2.6147174,-8.446159 6.3144244,-16.49981 9.5450334,-24.717317 2.020373,-5.756907 5.132157,-11.3963 5.521226,-17.58733 -0.02404,-0.06775 -0.07857,-0.274839 -0.07212,-0.203243 1.021076,11.334346 3.668059,-0.498949 24.467315,-11.4420793 0.709888,-0.3734943 -1.221302,1.0420373 -1.79624,1.6014003 -1.024839,0.997076 -2.979583,3.178174 -3.918823,4.209944 -2.395992,2.805407 -5.162923,5.32269 -7.202732,8.419126 -0.716933,1.088307 -0.226147,1.279193 -0.795933,0.955484 -4.491916,-10.898334 -0.08705,-2.127137 -25.932575,11.855427 -0.40549,0.219372 0.7720151,-0.529281 1.0578212,-0.891028 0.450775,-0.57055 0.7666225,-1.236302 1.1234696,-1.869852 0.8463047,-1.502538 1.6783891,-3.192423 2.4555214,-4.73017 5.6918928,-11.997727 4.2348308,-8.046631 29.4226158,-15.227749 0.985623,-0.281004 0.319823,2.026467 0.406753,3.047673 0.106948,1.256368 0.116227,2.519145 0.17434,3.778718 0.143279,5.727828 0.103708,11.457936 0.116014,17.186969 0,0 -25.999765,13.234699 -25.999765,13.234699 l 0,0 c 0.05648,-5.661925 0.09923,-11.327024 -0.129399,-16.986204 -0.07592,-1.169791 -0.123977,-2.341725 -0.227748,-3.509375 -0.0734,-0.825941 -0.997429,-2.014999 -0.303561,-2.468997 8.360866,-5.470514 17.538459,-9.578847 26.235137,-14.498032 0.250434,-0.141655 -0.619168,-0.02928 -0.851705,0.14016 -0.743826,0.541994 -1.6854,2.523491 -2.014046,3.121021 -0.263849,0.570617 -3.797023,8.508707 -3.818433,8.521969 C 5.4730923,41.540009 11.878506,47.989654 3.8407822,38.258526 2.6548803,33.558858 8.7471323,29.715539 11.186799,26.417578 c 7.826562,-8.82047 24.692444,-31.2244989 34.44385,-20.2550681 0.325945,0.3666583 0.345314,0.9184075 0.517971,1.3776113 -0.402673,6.6047848 -3.17021,12.6249258 -5.684307,18.6676798 -3.075953,8.092044 -6.725646,15.971433 -9.354189,24.232086 -0.22901,0.840761 -0.443529,1.685605 -0.687032,2.522284 -0.12603,0.433041 -0.106686,0.962575 -0.421247,1.285776 C 29.86049,54.393185 29.666982,53.82801 29.48795,53.922999 -22.268658,81.383472 -0.78468743,72.275567 6.8116731,66.259693 c 2.9954726,-2.444857 5.7166849,-5.12705 8.6451739,-7.652465 4.613186,-4.780367 9.577026,-9.209993 13.675935,-14.475699 4.831335,-5.878395 9.163248,-12.116792 13.958956,-18.016746 0.392228,-0.452395 0.654741,-1.063794 1.176685,-1.357185 0.662107,-0.372178 1.647364,0.725367 1.685453,1.172196 0.0061,0.07099 -3.858669,0.897715 -4.134069,0.95799 -3.806781,0.874193 -7.781764,1.257648 -11.243783,3.222169 7.924786,-4.58495 15.907368,-9.071426 23.774359,-13.754849 0.48721,-0.290049 -1.095898,0.312294 -1.60691,0.557995 -2.618173,1.258847 -3.673221,3.878123 -4.406232,6.522119 -1.76097,4.962877 -3.11832,10.078803 -4.417008,15.178825 0,0 -26.883528,12.62551 -26.883528,12.62551 z"
       inkscape:connector-curvature="0" />
    <path
       style="fill:#4d4d4d"
       id="path3551"
       d="m 87.703326,37.76695 c -4.776691,3.023789 -10.049076,5.059299 -15.116798,7.502378 -4.219508,2.008497 -8.917756,3.443501 -12.697546,6.230783 -35.228298,19.732364 152.812328,-87.68854 -5.090227,2.920047 -14.71007,8.441021 29.34096,-17.019553 44.052613,-25.457815 0.961569,-0.551534 -1.840769,1.240215 -2.808373,1.781091 -2.940578,2.370323 -5.897811,4.71824 -9.038186,6.821439 -3.17676,2.503194 -6.138312,5.208772 -9.111936,7.934613 -2.529802,2.351608 -4.53618,5.115787 -6.719968,7.760548 -2.468462,2.646644 -3.616833,5.876833 -5.028166,9.103904 -1.569913,3.082488 -1.964033,6.474555 -2.27237,9.865933 -0.795548,3.323785 -1.484902,6.640077 -1.824766,10.043806 -0.302524,3.865182 -0.305959,7.745384 -0.321454,11.619892 -0.0057,4.002077 0.0037,8.004161 0.0081,12.006231 0.0041,4.00205 0.0049,8.00409 0.0055,12.00614 -0.02603,4.0956 0.07874,8.19242 -0.09897,12.2849 -0.638659,4.04584 -1.201624,8.09629 -1.699679,12.16207 -0.930098,4.18505 -1.524691,8.43117 -2.382181,12.62949 -1.11028,5.99016 -2.158945,12.00483 -2.95113,18.04713 -0.481082,5.0725 -0.753741,10.1332 -1.594923,15.16293 -0.73448,3.90441 -1.025014,7.8635 -1.183547,11.8265 -0.117674,3.96187 -0.10578,7.92609 -0.104106,11.88927 0.03546,4.19788 -0.01633,8.39508 -0.03995,12.59264 -0.01307,4.92359 0.0013,9.84756 -0.04586,14.77097 -0.04966,6.36007 -0.102494,12.72035 -0.148701,19.0806 -0.08286,7.45861 -0.0078,14.91705 -0.01268,22.37573 0.08478,6.62891 0.03138,13.25835 0.06891,19.88738 -0.01365,6.69294 -0.0097,13.38549 -0.04724,20.07842 -0.05222,8.07825 -0.120213,16.15572 -0.118357,24.23425 0.140475,8.31585 -0.816806,16.59387 -1.344738,24.8826 -0.443479,7.87894 -0.587762,15.77215 -0.565017,23.66246 0.08004,5.84587 0.106166,11.69192 0.175782,17.53795 -0.01321,5.66881 -0.04648,11.33736 -0.08102,17.0061 -0.0316,6.36447 -0.0346,12.7296 0.005,19.09411 -0.03709,5.94764 0.04982,11.89525 0.03024,17.84277 0.139907,5.90298 -0.809409,11.75428 -1.374584,17.61537 -1.015038,7.10083 -1.887717,14.20128 -2.351978,21.36126 -0.178458,7.11829 -1.151012,14.1771 -1.696263,21.2693 -0.527846,6.30998 -0.548852,12.64389 -0.616739,18.97064 0.08214,6.54953 -0.880775,13.05119 -1.408864,19.56961 -0.367541,5.91044 -0.507803,11.83265 -0.541836,17.75356 -0.04682,5.52169 -0.0017,11.04382 0.01629,16.56563 0.198014,6.42517 -0.581298,12.80068 -1.213751,19.17905 -0.677241,7.08422 -0.819585,14.20285 -0.849988,21.31456 -0.0535,6.05035 -0.01552,12.10073 0.0605,18.15072 0.04333,5.2982 0.02055,10.59749 -0.02242,15.8958 0.05612,5.83772 0.103382,11.66953 -0.432388,17.48697 -0.636013,6.26396 -1.403348,12.50125 -2.242598,18.74063 -0.64834,5.96412 -1.149364,11.9254 -1.984435,17.86907 -0.59849,4.95355 -1.108795,9.90451 -1.924469,14.82844 -0.584632,4.56996 -1.825524,9.0095 -2.715603,13.52246 -1.271583,5.61795 -2.290403,11.27218 -3.936855,16.79822 -1.630026,6.15667 -2.851901,12.41455 -4.239425,18.62968 -1.243747,5.74866 -1.911648,11.58952 -3.010796,17.36643 -0.881506,4.109 -1.070406,8.305 -1.405235,12.47903 -0.845014,4.43056 -1.399727,8.89928 -1.717848,13.39613 -0.308991,4.55126 -0.312427,9.11245 -0.305877,13.67161 0.01685,4.17322 0.03522,8.34643 0.04491,12.51968 0.0079,4.00209 0.0084,8.00419 0.0089,12.00629 2.27e-4,3.99743 -1.9e-5,7.99486 -1.34e-4,11.99229 -1.09e-4,3.9998 -1.32e-4,7.9996 -1.47e-4,11.99941 -1.1e-5,4.00003 -8e-6,8.00005 -8e-6,12.00008 -0.295552,3.94236 0.407897,7.78117 1.019097,11.65089 0.432849,3.99866 0.868631,7.96164 1.625845,11.91326 0.514631,3.69415 1.069126,7.33115 1.960721,10.95251 1.125756,3.36268 1.948562,6.80831 3.161731,10.14002 0.960414,3.00005 1.761849,6.07411 3.091105,8.94082 1.276262,3.02004 2.544742,6.00146 4.107122,8.88428 1.438693,3.31487 2.54813,6.72029 4.146584,9.96677 1.558679,3.40218 2.810127,6.96878 4.7099,10.20051 1.757547,3.23646 3.278312,6.57139 5.082409,9.78251 1.464228,2.967 2.452902,6.1549 3.916989,9.1203 1.363997,2.767 2.716554,5.5894 4.749478,7.9335 1.778613,2.1763 3.610524,4.4203 5.774864,6.2316 1.352286,1.7065 3.302099,1.8718 5.158899,2.5839 1.081924,0.415 2.083839,1.0188 3.158856,1.4514 3.31582,1.1059 6.827395,0.6769 10.167608,1.5729 3.825735,1.0058 7.774402,1.2624 11.709151,1.4139 3.392482,1.185 6.89753,1.6893 10.464033,1.9191 3.746407,1.2902 7.667227,1.7487 11.597707,2.0018 3.9484,0.186 7.90273,0.1643 11.85439,0.1603 3.99891,-0.01 7.99782,-0.017 11.99674,-0.021 4.47203,0.029 8.94403,0.033 13.41623,0.022 4.19305,-0.013 8.3861,-0.02 12.57917,-0.023 4.00519,0 8.01038,0 12.01558,0 4.45739,-0.035 8.91398,0.053 13.37109,0.07 5.33729,0.053 10.6749,0 16.01217,-0.033 5.60056,-0.014 11.20097,0.078 16.80143,0.1165 6.69606,0.042 13.39222,0 20.08802,-0.065 4.58408,-0.048 9.16834,-0.071 13.75265,-0.083 3.9983,-0.01 7.99661,-0.01 11.99492,-0.01 4.70439,0.022 9.4088,0.037 14.11307,0.086 5.79957,0.022 11.59914,0.017 17.39871,0 5.87945,0.01 11.75897,0.027 17.63843,0.011 5.82115,0 11.64253,-0.016 17.46371,0 5.59734,-0.039 11.19469,0 16.79206,-0.011 4.8088,-0.023 9.61754,-0.055 14.42637,-0.072 4.62145,0.2388 9.09914,-0.085 13.65367,-0.7833 5.71498,-0.6111 11.40579,-1.0752 17.1058,-1.8079 7.54829,-0.5927 15.00072,-1.8624 22.54619,-2.5168 7.5081,-1.1915 15.04812,-1.9901 22.53768,-3.2829 5.92289,-0.4221 11.65415,-1.6918 17.46783,-2.7691 5.74005,-0.3245 11.29539,-1.7759 16.91866,-2.8555 6.95019,-1.681 13.90563,-3.4472 20.95797,-4.652 6.01309,-0.5244 11.86562,-1.9671 17.83943,-2.781 4.71045,-0.5914 9.46281,-0.5543 14.20041,-0.5279 5.86924,0 11.73831,0.049 17.6074,0.093 7.42078,-0.9125 14.88284,-1.3304 22.34601,-1.6952 5.58039,-0.2796 11.16668,-0.3882 16.75321,-0.4305 4.56123,0.011 9.12246,0.024 13.68385,0.016 4.8032,-0.022 9.60631,0.023 14.40923,0.073 6.26569,0.02 12.53119,0.051 18.79693,0.027 6.36782,-0.888 12.73745,-1.5515 19.10161,-2.4568 6.78034,-0.8743 13.57183,-1.2532 20.33323,-2.26 5.18099,-0.8313 10.41094,-1.2103 15.65056,-1.3681 0.78295,0 1.56988,0.074 2.34883,-0.01 1.60763,-0.163 3.17248,-0.6323 4.77666,-0.8263 2.89874,-0.3504 5.65455,-0.5197 8.50633,-1.1818 4.71548,-1.1862 9.53876,-1.7077 14.38285,-1.945 4.07919,-0.1406 8.16173,-0.1115 12.24262,-0.1016 3.99229,0.012 7.9846,0.019 11.97691,0.022 3.99822,0 7.99644,0 11.99466,0 2.69067,0.6836 1.40939,0.1589 3.83699,1.5907 0,0 -44.40227,29.7576 -44.40227,29.7576 l 0,0 c -1.53241,-0.085 -0.68407,-0.064 -2.54569,-0.027 -3.99954,-7e-4 -7.99907,0 -11.99861,-0.01 -3.99012,-0.01 -7.98025,-0.018 -11.97037,-0.011 -3.99372,0.02 -7.99348,0.041 -11.97483,0.3931 -4.66461,0.48 -9.25925,1.3573 -13.8709,2.1915 -5.40317,0.6213 -10.77863,1.5359 -16.22593,1.6168 -5.03703,0.2871 -10.0514,0.8187 -15.04835,1.5169 -6.72775,0.8044 -13.50786,1.1283 -20.20253,2.2229 -6.52072,0.9448 -13.10498,1.7882 -19.6928,1.9574 -6.29053,-0.025 -12.58084,0.01 -18.87134,0.026 -4.86668,0.048 -9.73361,0.092 -14.60053,0.061 -4.55478,-0.018 -9.10936,-0.023 -13.66403,0.011 -5.39562,0.016 -10.79247,0.065 -16.18346,0.3091 -7.55048,0.392 -15.06109,1.2924 -22.61556,1.5562 -5.92668,0.03 -11.85364,0.036 -17.77977,0.1253 -4.61392,0.1455 -9.23328,0.3541 -13.79489,1.1178 -5.81003,0.9425 -11.62896,1.8011 -17.43515,2.7596 -6.98892,1.5069 -13.95493,3.1133 -20.92674,4.6957 -5.725,1.2295 -11.49329,2.0957 -17.27214,3.0068 -5.71317,1.0587 -11.49847,1.4898 -17.23134,2.4323 -7.51157,1.1161 -15.06604,1.939 -22.59402,2.9332 -7.55638,0.8575 -15.08413,1.9497 -22.64379,2.7821 -5.75742,0.7534 -11.56196,1.0696 -17.30782,1.9333 -4.71821,0.4698 -9.45756,0.3552 -14.195,0.3557 -4.74251,-0.017 -9.48494,-0.049 -14.22743,-0.072 -5.58765,-0.01 -11.17528,0.029 -16.7629,-0.011 -5.81975,0.014 -11.63971,0 -17.45944,0 -5.88988,-0.015 -11.77983,0.01 -17.6697,0.011 -5.80133,-0.016 -11.60266,-0.019 -17.40398,0 -4.78328,0.049 -9.5667,0.064 -14.35008,0.086 -3.99246,2e-4 -7.98492,0 -11.97737,-0.01 -4.50839,-0.011 -9.01676,-0.034 -13.52492,-0.083 -6.6363,-0.064 -13.27296,-0.1068 -19.90953,-0.065 -5.70743,0.039 -11.41482,0.1292 -17.12233,0.1165 -5.30665,-0.031 -10.61363,-0.087 -15.92031,-0.033 -4.5213,0.017 -9.04209,0.1044 -13.56366,0.07 -4.00277,-10e-5 -8.00554,0 -12.00831,0 -4.17162,0 -8.34323,-0.01 -12.51484,-0.023 -4.49453,-0.01 -8.988818,0 -13.483144,0.034 -4.004998,0.01 -8.010067,0.019 -12.015028,0 -4.054361,-0.043 -8.117513,-0.1 -12.149746,-0.5687 -3.920789,-0.5221 -7.746728,-1.5186 -11.66619,-1.9909 -3.455996,-0.4966 -6.815896,-1.5105 -10.291882,-1.7898 -4.062466,-0.3812 -8.067647,-1.0685 -12.065797,-1.8771 -3.763683,-0.2808 -7.501089,-0.8759 -10.937899,-2.5264 -3.345115,-1.5206 -6.797645,-2.7989 -9.390593,-5.5533 -2.16448,-2.197 -4.3062029,-4.44 -6.1315985,-6.9317 -2.078627,-2.778 -3.8285366,-5.7865 -5.3461864,-8.9041 -1.42838349,-2.8951 -2.44218104,-5.9803 -3.7191252,-8.9413 -1.7533729,-3.2123 -3.329084,-6.4986 -4.9970955,-9.7534 -1.8806082,-3.3709 -3.4109834,-6.9328 -4.9365644,-10.4746 -1.534777,-3.1908 -2.837242,-6.4473 -4.054672,-9.7672 -1.588292,-2.96983 -3.030209,-5.98662 -4.307227,-9.10281 -1.42672,-3.00367 -2.408943,-6.20737 -3.274156,-9.41098 -1.263046,-3.53085 -2.06991,-7.16954 -3.447407,-10.6646 -0.862551,-3.73146 -1.717397,-7.39818 -1.981674,-11.23608 -0.740584,-4.02297 -1.592724,-7.97976 -1.723076,-12.08674 -0.578764,-4.11331 -1.694612,-8.16443 -1.390338,-12.34914 1e-6,-4.00003 2e-6,-8.00006 3e-6,-12.00009 1e-6,-3.99979 3e-6,-7.99958 -2.9e-5,-11.99937 -4.4e-5,-3.99716 -1.17e-4,-7.99431 -3.26e-4,-11.99147 -1.93e-4,-4.00205 -6.59e-4,-8.0041 5.67e-4,-12.00616 0.002,-4.19002 0.0052,-8.38006 0.02346,-12.57006 0.02218,-4.64768 0.0053,-9.298 0.140554,-13.94342 0.242298,-4.61813 0.656744,-9.22625 1.461505,-13.78455 0.984882,-4.15953 0.375879,-8.57574 1.439729,-12.75512 1.165263,-5.88456 2.458052,-11.71707 3.264946,-17.67084 1.434111,-6.24601 2.640491,-12.52686 3.923458,-18.79976 1.48513,-5.46041 3.333055,-10.81098 3.909126,-16.48553 0.604092,-2.25303 0.817366,-4.5067 1.362378,-6.77091 0.334063,-1.38784 0.860479,-2.72674 1.15849,-4.12277 0.16413,-0.76886 0.218058,-1.55718 0.327087,-2.33577 0.835766,-4.92824 1.687574,-9.79825 2.078866,-14.78897 0.920434,-5.9474 1.824712,-11.86815 2.170542,-17.88651 0.8373223,-6.1925 1.7352821,-12.35704 2.1712738,-18.59472 0.7937739,-5.63775 0.8078983,-11.24601 0.7041648,-16.93833 -0.046061,-5.28633 -0.073228,-10.57354 -0.041702,-15.85985 0.065885,-6.1083 0.086445,-12.21653 0.1352017,-18.32492 0.1380321,-7.22862 0.23503,-14.46207 0.6861976,-21.67976 0.4749932,-6.21405 1.5333083,-12.3904 1.1802756,-18.6384 0.00811,-5.54853 0.032616,-11.09674 0.039009,-16.64533 0.059121,-6.04703 0.075939,-12.0984 0.5361939,-18.13236 0.4097606,-6.41898 1.3168841,-12.80461 1.5005349,-19.22658 0.013879,-6.44289 0.1055449,-12.88941 0.4575463,-19.32357 0.585858,-7.09672 1.695198,-14.14616 1.9679268,-21.25832 0.32012457,-7.1459 0.80170011,-14.29205 2.01723755,-21.35096 0.38550825,-5.75398 1.38886325,-11.45146 1.52415275,-17.20854 -0.01965,-5.95781 0.067458,-11.91572 0.030395,-17.87365 0.039346,-6.36564 0.036917,-12.73191 0.00361,-19.0975 -0.036436,-5.63705 -0.072271,-11.27387 -0.096605,-16.91097 0.058672,-5.92388 0.067468,-11.84807 0.1996917,-17.77094 0.1194889,-7.98905 0.1072958,-15.98301 0.5291224,-23.96443 0.4709886,-8.21601 1.5003179,-16.40426 1.553968,-24.63287 0.00185,-8.03833 -0.065835,-16.07559 -0.1183567,-24.11364 -0.037635,-6.67688 -0.033515,-13.35338 -0.047246,-20.03028 0.037453,-6.65244 -0.015619,-13.30528 0.068916,-19.9576 -0.00487,-7.4544 0.07024,-14.90855 -0.012616,-22.36287 -0.046131,-6.30973 -0.098903,-12.61949 -0.1485481,-18.92903 -0.047595,-4.90635 -0.032633,-9.81324 -0.049472,-14.71977 -0.027503,-4.17863 -0.086513,-8.35691 -0.064372,-12.53594 -0.0067,-4.01184 -0.023637,-8.02395 0.028523,-12.03557 0.084271,-4.18941 0.2231883,-8.39064 0.9160975,-12.53227 0.8933037,-5.02291 1.8265585,-9.97712 2.0146575,-15.09969 0.7398214,-6.11288 1.8740818,-12.15564 2.5193548,-18.27734 0.8389152,-4.16574 1.3798562,-8.36068 2.3048602,-12.50944 1.043063,-3.85323 0.74575,-7.96941 1.850415,-11.83781 0.845567,-3.82406 0.164691,-7.82218 0.379348,-11.71527 -1.44e-4,-4.00078 -2.6e-4,-8.00156 -0.0028,-12.00234 -0.0031,-4.00577 -0.0089,-8.01154 -0.01588,-12.0173 -0.0034,-3.97756 -0.01929,-7.95647 0.112478,-11.93241 0.163194,-3.5786 0.34904,-7.205297 1.466268,-10.638151 1.235422,-3.432047 0.360512,-7.368887 1.824587,-10.808947 0.418206,-1.041832 1.051456,-1.990392 1.448802,-3.040358 0.923282,-2.439722 1.142086,-5.158545 3.098966,-7.132629 3.89163,-6.361742 -1.997863,3.02509 2.083329,-2.725557 1.387494,-1.955065 2.315147,-4.32055 4.452472,-5.664644 2.510121,-3.256219 5.574222,-6.129457 8.907718,-8.559359 2.56689,-2.747163 5.948566,-4.528518 8.849491,-6.909939 1.570806,-1.725045 0.70379,-1.032056 2.709825,-2.205381 C 64.887095,39.283439 81.118084,30.971611 96.273408,20.932794 110.36761,11.596862 37.808991,54.914752 52.384228,46.349211 78.354417,31.08711 84.589952,27.536504 101.30257,18.006136 c 4.3052,-1.819308 8.49649,-3.908211 12.79902,-5.738151 5.25856,-2.3298981 10.22558,-5.2242333 15.32427,-7.8751189 0,0 -41.722534,33.3740839 -41.722534,33.3740839 z"
       inkscape:connector-curvature="0" />
    <path
       style="fill:#4d4d4d"
       id="path3553"
       d="m 702.72315,1060.0571 c -3.72094,-0.3745 -7.4917,0.1253 -11.21095,-0.13 -1.94531,-0.1336 -3.86193,-0.542 -5.79296,-0.8125 -5.75834,-1.609 -11.66641,-2.44 -17.61423,-2.8995 -4.53743,-0.3578 -8.94896,-1.5188 -13.49977,-1.9412 -3.93928,-0.2855 -7.89188,-0.2726 -11.83908,-0.2765 -3.98689,0 -7.97377,0.015 -11.96065,0.02 -4.00006,0 -8.00013,0.01 -12.00019,0.01 -4.00021,2e-4 -8.00042,10e-5 -12.00063,10e-5 -4.53947,-0.042 -9.0794,-0.015 -13.61891,-0.051 -4.70983,-0.011 -9.41963,0.019 -14.12942,0.034 -4.5464,0 -9.09309,0 -13.63939,-0.04 -4.78021,-0.011 -9.56038,0.021 -14.34055,0.038 -4.56981,-0.017 -9.13956,-0.021 -13.70949,-0.01 -4.87749,-0.2518 -9.49094,0.045 -14.295,0.8013 -5.54851,0.988 -11.05444,2.241 -16.56472,3.4615 -5.06629,1.1423 -10.23712,1.5661 -15.41421,1.7428 -4.1775,0.082 -8.35691,0.078 -12.53469,0.018 -5.14694,1.1319 -10.43104,1.4093 -15.67777,1.7138 -5.20113,0.1758 -10.4047,0.2459 -15.60842,0.2781 -4.16733,0.018 -8.33472,0.014 -12.50208,0.013 -2.73162,0.8473 -5.53761,1.2192 -8.38124,1.0475 0,0 43.05288,-31.4898 43.05288,-31.4898 l 0,0 c 2.79413,-0.4263 5.60035,-1.0384 8.44053,-0.8734 4.13463,0.01 8.26926,0.022 12.40389,0.017 5.09646,-0.021 10.19941,-0.051 15.28285,-0.4562 5.35724,-0.4254 10.6671,-1.3836 16.03653,-1.5172 4.12501,-0.046 8.25434,-0.01 12.37348,-0.2701 4.92995,-0.3773 9.82147,-1.0843 14.63399,-2.2408 5.62493,-1.246 11.26258,-2.5341 16.99389,-3.1784 4.91968,-0.4845 9.86111,-0.2963 14.79952,-0.3377 4.5769,0.013 9.15363,0.01 13.73041,-0.01 4.745,0.017 9.49,0.049 14.23504,0.038 4.58285,-0.036 9.16606,-0.044 13.74901,-0.04 4.67872,0.015 9.35746,0.044 14.03622,0.034 4.58599,-0.035 9.17238,-0.01 13.75834,-0.05 3.99995,0 7.9999,0 11.99985,0 3.99897,0 7.99794,0 11.99691,-0.011 3.99902,-0.01 7.99827,-0.021 11.99711,0.026 4.06753,0.074 8.14435,0.1943 12.17545,0.7908 4.41876,0.6944 8.78584,1.7046 13.26233,1.9861 5.90292,0.7983 11.70842,2.0949 17.59341,2.978 5.64587,0.5194 11.32523,0.3658 16.98712,0.1964 0,0 -43.20441,31.3898 -43.20441,31.3898 z"
       inkscape:connector-curvature="0" />
    <path
       style="fill:#4d4d4d"
       id="path3555"
       d="m 51.752213,994.39624 c 4.662142,2.92789 9.540794,5.48338 14.05744,8.65296 3.870655,3.1281 7.33761,6.7188 11.008146,10.0908 3.887064,3.4375 7.327184,7.364 11.352894,10.6382 4.100897,2.8529 8.662266,4.867 12.917497,7.4529 4.51237,2.7953 9.4582,4.6247 14.31979,6.686 5.16326,1.6331 10.25647,3.5074 15.44012,5.0684 6.56109,1.8648 13.22618,2.8975 20.01521,3.4543 5.47128,0.095 10.73037,-1.4806 15.94907,-2.9146 0,0 -41.56997,31.7787 -41.56997,31.7787 l 0,0 c -5.69246,1.2767 -11.39669,2.4106 -17.26471,1.6536 -7.08831,-0.8146 -14.104312,-2.0991 -20.948012,-4.1538 -5.24307,-1.753 -10.564197,-3.305 -15.663687,-5.4542 -5.102006,-2.0545 -10.10015,-4.3318 -14.781833,-7.2419 -4.600681,-2.5589 -9.416916,-4.8284 -13.458015,-8.2653 -3.882012,-3.5224 -7.571119,-7.2528 -11.502692,-10.7228 -3.503283,-3.1767 -6.657418,-6.7621 -10.530669,-9.4925 -4.471562,-2.9289 -9.057932,-5.7375 -13.9741916,-7.8634 0,0 44.6336126,-29.36736 44.6336126,-29.36736 z"
       inkscape:connector-curvature="0" />
    <path
       style="fill:#4d4d4d"
       id="path3557"
       d="m 735.86179,25.265696 c 0.70821,7.719267 1.90219,15.376999 2.62244,23.098135 0.6263,6.843056 0.93888,13.712056 1.14541,20.579372 0.0697,5.510477 -0.009,11.020902 -0.007,16.53144 -0.0421,5.608529 0.039,11.215596 -0.0237,16.824057 -0.28798,5.46729 0.4104,10.86274 1.11434,16.26587 0.60326,4.5013 0.88974,9.03452 0.93471,13.57344 0.55614,5.88476 1.08664,11.76674 1.45958,17.66866 0.29341,6.34132 0.46123,12.68961 0.48629,19.0377 -0.0182,6.20732 0.005,12.41437 -0.0435,18.62162 -0.0189,6.9321 -0.0424,13.86427 -0.0756,20.79648 -0.0615,6.80792 0.0862,13.61532 0.095,20.42293 0.01,6.57594 -0.038,13.15158 -0.08,19.72742 -0.0469,7.75365 -0.0569,15.50745 -0.0639,23.26122 -0.005,8.00688 -0.004,16.01376 -0.004,24.02064 -0.0901,8.96469 -0.10642,17.92945 -0.0766,26.89449 0.0367,8.36823 0.0578,16.73651 0.0693,25.10481 -0.081,8.5608 -0.0396,17.12219 -0.021,25.68321 0.0503,8.42485 -0.0273,16.84928 -0.0259,25.27408 -0.11946,9.37425 -0.0707,18.7488 -0.0233,28.12332 0.0668,8.23161 0.018,16.46393 0.11104,24.69525 0.0342,7.20473 -0.0173,14.40874 0.0804,21.61303 0.0811,6.11991 0.053,12.24156 0.008,18.36187 -0.0155,6.93771 -0.0373,13.87548 -0.0697,20.8133 -0.11534,8.56571 -0.24658,17.11035 0.34013,25.6604 0.75494,8.53816 1.19602,17.09542 1.43667,25.66198 0.14813,7.84939 0.20207,15.70079 0.2386,23.55142 0.14277,6.03038 0.0936,12.06086 0.10624,18.09189 -0.0496,6.89981 -0.10836,13.79949 -0.13925,20.69942 -4.6e-4,8.11335 -0.0575,16.22636 -0.0867,24.33954 -0.0669,9.42464 -0.055,18.84935 -0.087,28.27412 0.0135,8.98227 0.0756,17.96436 0.10805,26.94658 0.27718,7.45555 1.22612,14.86082 1.70138,22.30412 0.35696,6.65968 0.42486,13.32945 0.44766,19.99722 0.0847,6.29412 0.002,12.58864 0.0238,18.88288 -0.0315,7.0807 -0.0843,14.16126 -0.11118,21.242 -0.0256,7.92155 -0.0279,15.84315 -0.0301,23.76474 -0.0657,9.16851 -0.13097,18.33722 -0.12986,27.50602 -1.2e-4,8.59898 0.099,17.19729 0.15921,25.7958 0.0355,6.93961 0.078,13.87918 0.0779,20.81893 0.0742,6.29511 0.002,12.59054 0.0277,18.88571 -0.034,6.38204 -0.0376,12.76408 0.0327,19.14588 -0.0186,5.24045 0.0612,10.48057 0.10566,15.72072 0.0334,4.13318 0.04,8.2665 0.0439,12.39979 0.002,3.98905 10e-4,7.9781 10e-4,11.96715 0.23994,4.4455 -0.21835,8.7509 -1.5677,12.98765 -1.58257,3.91113 -3.61878,7.65343 -6.34303,10.88413 -2.60291,3.01666 -6.01398,5.12225 -8.89789,7.81608 -16.415,12.29279 -35.69921,21.64669 -53.15556,31.81799 -1.37371,1.2484 -3.30488,1.1751 -4.89649,1.8517 -0.52101,0.2215 -0.92138,0.6635 -1.41953,0.9324 -1.26108,0.681 -1.87556,0.7633 -3.25192,1.1398 -3.9334,1.8164 -7.81613,3.7078 -11.80311,5.4456 -6.16624,2.5361 -12.42426,4.9696 -18.81939,6.8876 -5.18659,2.2729 -10.63546,3.5938 -16.24814,4.169 -2.1584,0.1825 -4.32442,0.2073 -6.48866,0.2379 0,0 42.97038,-31.4846 42.97038,-31.4846 l 0,0 c 2.03652,-0.1377 4.07556,-0.2771 6.08625,-0.6516 5.27612,-1.0521 10.31041,-2.8716 15.37727,-4.6536 6.2943,-2.2924 12.62664,-4.5139 18.65981,-7.4504 4.06882,-1.8823 8.05222,-3.95907 12.29252,-5.44018 3.05789,-1.54718 6.28824,-2.63188 9.14487,-4.5773 -14.79182,8.63928 -29.58363,17.27858 -44.37545,25.91788 0.40811,-0.2469 0.86054,-0.4323 1.22434,-0.7409 1.17901,-1 2.26695,-2.1319 3.62028,-2.9468 0.4661,-0.2806 1.01784,-0.3848 1.52676,-0.5772 4.1182,-2.7736 -1.45776,1.1331 2.69767,-2.3283 2.10252,-1.7513 4.50346,-3.1109 6.53072,-4.9708 0.96108,-0.8003 2.03175,-1.4843 2.88517,-2.3985 1.77265,-1.8989 3.04378,-4.4641 4.31064,-6.67968 2.02563,-3.4088 2.73978,-7.03443 2.45915,-10.99508 -3.6e-4,-3.98943 -0.001,-7.97886 10e-4,-11.96829 0.004,-4.1482 0.0106,-8.29643 0.0439,-12.44451 0.0444,-5.27605 0.12393,-10.55206 0.10566,-15.8284 0.0697,-6.39291 0.0672,-12.78605 0.0327,-19.1792 0.026,-6.30457 -0.0464,-12.6094 0.0277,-18.91392 -1.3e-4,-6.96621 0.0425,-13.93224 0.0779,-20.89832 0.0601,-8.65259 0.15903,-17.30497 0.1592,-25.95803 10e-4,-9.12466 -0.0639,-18.24923 -0.13001,-27.37359 -0.002,-7.91167 -0.005,-15.82335 -0.0294,-23.73498 -0.0257,-7.04617 -0.0771,-14.09219 -0.0993,-21.13836 0.0301,-6.29448 -0.0329,-12.58921 0.0281,-18.8837 -0.0252,-6.58934 -0.018,-13.18147 -0.29392,-19.76644 -0.36148,-7.57901 -0.9912,-15.13542 -1.57369,-22.69976 0.0324,-9.01892 0.0945,-18.03772 0.10805,-27.0567 -0.032,-9.39519 -0.02,-18.79033 -0.0871,-28.18541 -0.0292,-8.08378 -0.0866,-16.16739 -0.0867,-24.25136 -0.0304,-6.85454 -0.0892,-13.70883 -0.13334,-20.56327 0.0187,-6.06956 -0.0176,-12.1385 0.12874,-18.20728 0.0326,-7.83732 0.0915,-15.6749 -0.0485,-23.51185 -0.15859,-8.51354 -0.45065,-17.02573 -1.16564,-25.51348 -0.65424,-8.61001 -0.88859,-17.21424 -0.79881,-25.85115 -0.0324,-6.91413 -0.0543,-13.82821 -0.0697,-20.74223 -0.0453,-6.12305 -0.0726,-12.24743 0.008,-18.37008 0.0968,-7.23161 0.0469,-14.46291 0.0804,-21.69494 0.0924,-8.26906 0.0447,-16.53908 0.11104,-24.80842 0.0471,-9.36659 0.0966,-18.73324 -0.0233,-28.09957 10e-4,-8.416 -0.0763,-16.83163 -0.0259,-25.24769 0.0185,-8.55387 0.0602,-17.10813 -0.021,-25.6618 0.0114,-8.39182 0.0326,-16.78362 0.0693,-25.17537 0.0297,-8.93904 0.0142,-17.8778 -0.0766,-26.81648 2.6e-4,-8.00553 10e-4,-16.01106 -0.004,-24.01659 -0.007,-7.73205 -0.0169,-15.46415 -0.0639,-23.19609 -0.0421,-6.54863 -0.0902,-13.09705 -0.0802,-19.64578 0.009,-6.84017 0.1559,-13.68012 0.0956,-20.52059 -0.0321,-6.90969 -0.0538,-13.8193 -0.0639,-20.7289 -0.0398,-6.18483 0.003,-12.36945 -0.0369,-18.5542 -0.0226,-6.28637 0.0627,-12.57607 -0.23597,-18.85812 -0.28446,-5.92803 -0.83713,-11.82926 -1.89009,-17.6753 -0.11016,-4.38593 -0.144,-8.77938 -0.60308,-13.14766 -0.5908,-5.61842 -1.62477,-11.20359 -1.29347,-16.87437 -0.0607,-5.60706 0.0272,-11.21242 4.3e-4,-16.81958 0.0184,-5.4834 -0.0217,-10.966777 -0.0132,-16.450189 0.0624,-6.833316 0.0547,-13.67093 -0.42532,-20.491997 -0.61803,-7.493829 -1.54646,-14.940898 -3.34777,-22.253667 0,0 47.24511,-25.063831 47.24511,-25.063831 z"
       inkscape:connector-curvature="0" />
    <path
       style="fill:#4d4d4d"
       id="path3559"
       d="m 739.78429,932.05264 c -0.95725,5.1964 -1.88159,10.39234 -3.03691,15.5519 -1.19806,4.30588 -2.17758,8.70168 -4.01286,12.79181 -1.93862,3.54536 -3.49633,7.28258 -5.4491,10.82007 -1.89758,3.79614 -4.3688,7.27986 -7.03088,10.57521 -2.12579,3.31377 -4.925,6.04234 -7.53087,8.95111 -2.70112,3.07186 -5.16947,6.32658 -7.63749,9.58766 -3.26195,4.2123 -6.87788,8.1339 -10.81718,11.7163 -5.06057,4.2214 -10.05336,8.478 -14.79082,13.0627 -3.8783,3.9806 -7.98176,7.7466 -12.43455,11.076 -2.05565,1.4315 -4.03766,2.9591 -6.00006,4.5142 0,0 -49.41212,19.5134 -49.41212,19.5134 l 0,0 c 2.13009,-1.3604 4.0483,-2.9158 6.02818,-4.4865 4.55321,-3.1865 9.13068,-6.4088 12.99156,-10.4461 4.67343,-4.6496 9.30861,-9.3275 14.57604,-13.304 3.91778,-3.2875 7.69598,-6.6724 10.9056,-10.6878 2.61655,-3.1864 4.92723,-6.5509 7.52202,-9.7343 2.44178,-3.0705 5.18616,-5.7077 7.76914,-8.6431 2.24989,-3.40597 5.10356,-6.40136 7.32019,-9.83327 1.7598,-3.57073 3.5864,-7.10163 5.44944,-10.60189 0.5597,-1.11492 1.32214,-2.12358 1.84458,-3.25644 1.28745,-2.79169 1.80616,-5.88827 2.77654,-8.78785 1.5901,-4.79374 2.55321,-9.85637 2.9225,-14.88916 0,0 48.04705,-23.48995 48.04705,-23.48995 z"
       inkscape:connector-curvature="0" />
    <path
       style="fill:#4d4d4d"
       id="path3561"
       d="m 741.78429,880.05264 c -0.9045,5.11934 -1.94502,10.21441 -2.89572,15.32685 -0.84599,4.56315 -2.05829,9.04457 -3.50943,13.44913 -1.6377,3.84221 -3.07379,7.79192 -4.85563,11.5674 -1.55128,3.5031 -3.50438,6.77059 -5.61642,9.95953 -2.78386,3.45258 -5.31773,7.06228 -7.68895,10.80766 -2.04115,3.55585 -4.26173,7.00736 -6.39159,10.5137 -2.50935,3.92074 -5.03904,7.82684 -7.59289,11.71959 -2.6689,3.69432 -4.74509,7.74634 -7.55235,11.33742 -2.81781,3.64835 -6.58513,6.30503 -9.77129,9.59291 -3.52572,3.18926 -7.1306,6.27485 -10.93034,9.13126 -17.55494,13.54691 -38.61806,21.73971 -57.29963,33.53911 -4.47484,2.4024 -8.98291,4.7304 -13.81866,6.335 -7.16092,2.8097 -14.4404,5.2422 -21.97577,6.8139 -7.54903,2.1225 -15.31051,3.048 -23.11508,3.4753 0,0 42.38,-31.2801 42.38,-31.2801 l 0,0 c 7.61311,-0.7335 15.12764,-2.0677 22.5125,-4.0867 7.42245,-2.0453 14.66076,-4.6574 21.77001,-7.6123 4.63172,-2.18434 9.17799,-4.52459 13.63501,-7.04583 25.97098,-12.60794 -62.91897,37.01163 -33.42237,19.56993 3.66518,-2.9248 7.54842,-5.5187 10.98205,-8.7343 1.83294,-1.4232 3.10947,-3.1564 4.81562,-4.69752 2.35906,-2.13087 1.25438,-0.64994 3.62425,-2.67559 0.57472,-0.49124 1.06376,-1.07466 1.59564,-1.61199 3.16898,-3.27654 5.70195,-6.81823 7.84372,-10.85785 2.75268,-3.69247 5.18288,-7.63009 7.56417,-11.56412 2.38047,-3.28 4.02614,-6.99845 6.57474,-10.15949 2.00321,-4.03356 4.42711,-7.93401 7.34391,-11.3655 2.30277,-2.8219 4.23408,-5.83129 5.98437,-8.9994 0.52393,-1.11647 1.25121,-2.13107 1.75933,-3.25482 1.19201,-2.63621 2.01327,-5.47862 3.34891,-8.06311 1.90582,-4.00031 2.81887,-8.29362 4.06962,-12.52591 0.85372,-5.05003 2.37052,-9.97655 2.58522,-15.11421 0,0 48.04705,-23.48995 48.04705,-23.48995 z"
       inkscape:connector-curvature="0" />
    <path
       style="fill:#4d4d4d"
       id="path3563"
       d="m 709.47027,983.3412 c -4.73929,4.50536 -9.33288,9.16123 -13.94736,13.79355 -3.55966,3.59405 -7.15182,7.17015 -11.09255,10.34775 -2.724,2.1825 -4.1131,5.4989 -6.67774,7.8082 -17.45577,12.9087 -37.64529,22.66 -56.14415,33.2831 -1.89699,1.222 -4.01847,1.865 -6.16092,2.4838 0,0 41.90756,-32.8337 41.90756,-32.8337 l 0,0 c 1.94694,-0.9391 3.8507,-1.9508 5.76635,-2.9523 -78.10456,45.2464 -51.20882,30.6726 -34.99513,19.7549 0.87409,-0.5319 1.86231,-0.8655 2.7177,-1.4269 1.66388,-1.092 3.16532,-4.2084 4.35316,-5.8074 3.40236,-3.9094 8.07465,-6.5338 11.518,-10.4406 4.50816,-4.491 9.0449,-8.9567 13.42219,-13.576 0,0 49.33289,-20.4344 49.33289,-20.4344 z"
       inkscape:connector-curvature="0" />
    <path
       style="fill:#4d4d4d"
       id="path3565"
       d="m 701.47027,977.3412 c -4.25478,3.94829 -8.2525,8.16444 -12.04898,12.55228 -2.67298,2.24417 -4.18755,5.43309 -6.4318,8.01921 -2.38661,2.67961 -3.93298,5.92201 -5.90262,8.88031 -1.98401,3.235 -4.01081,6.4197 -6.15866,9.551 -1.60495,2.1173 -0.83578,1.0212 -2.30326,3.2913 0,0 -48.99544,20.9948 -48.99544,20.9948 l 0,0 c 1.78467,-1.8697 0.98018,-0.8202 2.37089,-3.1809 2.34353,-2.8868 4.31486,-5.9656 6.27599,-9.0948 0.30643,-0.535 0.61287,-1.0701 0.9193,-1.6051 0.37257,-0.4509 0.8114,-0.8544 1.1177,-1.3527 1.25614,-2.0434 1.98145,-4.4566 3.58863,-6.2907 3.10224,-4.8813 -1.40739,1.9467 1.94286,-2.3076 1.63028,-2.0702 2.70792,-4.5411 4.5203,-6.4953 4.2156,-3.8844 7.6504,-8.5326 11.7722,-12.52745 0,0 49.33289,-20.43435 49.33289,-20.43435 z"
       inkscape:connector-curvature="0" />
    <path
       style="fill:#4d4d4d"
       id="path3567"
       d="m 28.378623,73.938565 c 2.965361,-5.399043 6.386821,-10.534883 9.778917,-15.672175 2.833072,-3.859083 5.434241,-7.90741 8.547586,-11.54905 12.970712,-14.17876 38.627275,-23.049598 50.356308,-29.599958 1.737023,-0.970083 3.823946,-1.330559 5.740776,-1.732998 3.99872,-0.933509 8.20067,-0.142952 12.13619,-1.21855 3.97489,-0.997621 8.07179,-1.243971 12.14997,-1.399958 4.7021,-0.530168 9.34524,-1.37884 14.10841,-1.630366 6.30358,0.153346 12.47867,-0.723281 18.71336,-1.4725565 5.84362,-0.6159242 11.71419,-0.7669376 17.5839,-0.8819103 4.55758,-0.07745 9.11593,-0.081517 13.67404,-0.084221 4.01743,-1.464e-4 8.03487,0.00214 12.05231,0.00326 3.99232,9.978e-4 7.98463,0.00114 11.97695,0.00125 3.99925,6.59e-5 7.99849,4e-5 11.99773,2.94e-5 4.00007,-1.15e-5 8.00014,-1.54e-5 12.00022,-1.77e-5 4.00001,-1.8e-6 8.00003,-1.6e-6 12.00005,-1.6e-6 5.1462,-0.2201557 10.18675,0.2148005 15.27161,0.9090669 5.26177,0.2499115 10.32641,1.5176368 15.50991,2.2856468 6.89129,0.906119 13.85507,0.611893 20.75316,1.356408 8.38862,0.544048 16.62262,2.184221 24.88383,3.63781 9.14799,1.498295 18.42332,1.810201 27.6729,2.002451 9.51608,0.140245 19.03308,0.137796 28.5499,0.167569 9.43418,-0.01539 18.86817,-0.08146 28.3023,-0.11638 7.69651,-0.03394 15.39321,-0.04048 23.08962,-0.08982 7.26995,-0.003 14.54012,0.0028 21.80985,0.06256 8.41334,0.03749 16.82681,0.01714 25.2402,0.0081 8.33412,-0.02191 16.66793,-0.01578 25.00184,0.04634 8.9511,0.181119 17.84984,0.0504 26.76076,-0.769192 8.12373,-0.986184 16.30462,-1.073865 24.47497,-1.128862 10.29009,-0.06905 20.58081,-0.0575 30.8711,-0.03092 10.06034,0.01169 20.12049,-0.03317 30.18071,-0.07645 8.34265,-0.03639 16.68537,-0.04685 25.02808,-0.05276 4.46058,-0.288533 8.98923,0.232592 13.44491,-0.104172 1.89352,-0.143114 3.75578,-0.564745 5.6379,-0.816808 5.04075,-0.725607 10.11911,-1.073795 15.20554,-1.234652 4.1832,-0.0868 8.3682,-0.09906 12.55189,-0.04615 4.79287,0.0096 9.58559,0.0445 14.37849,0.03782 5.30791,0.534805 10.25071,2.379499 15.22963,4.150663 4.02892,1.862571 8.18827,3.249091 12.0213,5.51597 3.50135,2.499781 6.64861,5.449745 9.43058,8.728588 2.59642,3.16346 4.7027,6.563379 6.47089,10.24998 1.37431,3.55518 2.26167,7.277338 3.3125,10.941875 0.52158,1.844191 0.77469,3.74068 1.02366,5.635068 0,0 -47.26199,24.749476 -47.26199,24.749476 l 0,0 c -0.14771,-1.638474 -0.28863,-3.281293 -0.6722,-4.886456 -0.87619,-3.403099 -1.82395,-6.779528 -2.78984,-10.148578 -1.5264,-3.242604 -3.39775,-6.234973 -5.68057,-9.005951 -2.47954,-2.721638 -5.22207,-5.321466 -8.46873,-7.1008 -3.72744,-1.808933 -7.52936,-3.453984 -11.40179,-4.930408 -4.57241,-1.60583 -9.30275,-2.80539 -14.19036,-2.678695 -4.81428,-0.01236 -9.62848,0.01204 -14.44277,0.01532 -4.14323,0.05424 -8.28899,0.03338 -12.4287,0.240936 -4.94046,0.277152 -9.86055,0.773578 -14.77277,1.367755 -6.36097,0.586735 -12.74671,0.196913 -19.12623,0.217936 -8.29245,-0.0063 -16.58492,-0.01731 -24.87729,-0.05867 -9.97831,-0.04983 -19.95654,-0.106257 -29.93501,-0.09895 -10.33448,0.02992 -20.66989,0.01736 -31.00236,0.256163 -8.15842,0.273767 -16.30033,0.777558 -24.43399,1.473454 -8.96101,0.575825 -17.9317,0.323868 -26.90646,0.369749 -8.37643,0.06118 -16.75275,0.06882 -25.1294,0.04633 -8.42075,-0.0091 -16.84159,-0.02936 -25.26231,0.0079 -7.32691,0.05882 -14.65425,0.06554 -21.98139,0.06231 -7.61632,-0.04925 -15.23295,-0.05443 -22.84939,-0.08133 -9.35017,-0.02455 -18.70032,-0.07138 -28.05054,-0.06618 -9.60647,0.04135 -19.21729,0.111986 -28.82066,-0.172323 -9.41974,-0.379085 -18.85248,-0.92854 -28.14942,-2.585917 -8.19684,-1.438555 -16.43848,-2.582871 -24.74937,-3.117558 -7.11339,-0.341402 -14.26515,-0.361149 -21.31824,-1.465584 -5.09593,-0.855749 -10.20037,-1.583129 -15.34146,-2.128076 -5.05055,-0.467497 -10.10914,-0.238218 -15.17546,-0.229873 -4.00002,-10e-7 -8.00003,-2e-6 -12.00004,0 -4.00007,4e-6 -8.00014,9e-6 -12.0002,4.9e-5 -3.99942,4.5e-5 -7.99883,1.35e-4 -11.99824,1.6e-4 -3.99331,-5.2e-5 -7.98662,1.1e-5 -11.97994,-0.0025 -4.01064,-0.0031 -8.02127,-0.0088 -12.0319,-0.02013 -4.47514,-0.01024 -8.95081,-0.02799 -13.42539,0.058 -5.73762,0.148714 -11.4739,0.470733 -17.17148,1.190212 -6.28313,0.705765 -12.57608,0.937887 -18.877747,1.41185 -4.804108,0.596122 -9.559506,1.590304 -14.412787,1.709271 -3.996448,0.379778 -7.929448,1.1045 -11.890184,1.737749 -3.957045,0.155597 -7.939727,0.46514 -11.700445,1.80988 -2.801772,1.071774 -0.837346,0.290298 -3.607817,1.470799 -0.601885,0.256464 -2.37556,1.087934 -1.810136,0.75879 70.090196,-40.8007568 57.489696,-31.603768 40.745784,-23.878725 -3.605628,3.19337 -6.357486,7.023557 -9.23114,10.877614 -3.474623,4.736232 -6.672567,9.703556 -9.636224,14.76889 0,0 -48.678161,22.023534 -48.678161,22.023534 z"
       inkscape:connector-curvature="0" />
    <path
       style="fill:#4d4d4d"
       id="path3569"
       d="m 339.55514,3.8326522 c 8.37629,3.4064141 17.39563,4.8314338 26.32224,5.9361384 10.06698,0.9429134 20.15918,1.0527964 30.22762,1.9532864 10.08178,0.676292 20.10001,1.932341 30.1853,2.588328 10.71917,0.599839 21.45675,0.701345 32.18968,0.779293 11.26787,0.08481 22.53561,0.02828 33.80323,-0.05377 9.41469,0.346641 18.65939,2.150708 28.0271,3.029196 9.31457,0.76155 18.5788,1.921675 27.91569,2.454179 7.83164,0.395331 15.67445,0.366247 23.51334,0.380621 7.22733,-0.01188 14.45438,-0.04702 21.68164,0.01098 8.29159,0.03689 16.58331,0.01941 24.87495,0.012 8.09386,0.80005 16.19782,1.405738 24.32459,1.726473 7.73387,0.25323 15.47247,0.28023 23.20944,0.217291 5.14261,0.429433 10.06436,-0.972969 15.1103,-1.649177 2.69147,-0.720428 5.15747,-1.918551 7.75422,-2.890158 0,0 -41.95662,32.782314 -41.95662,32.782314 l 0,0 c -2.72434,0.966114 -5.53349,1.722473 -8.42098,2.000228 -5.05066,0.753252 -10.08389,1.096831 -15.19655,0.764496 -7.72596,-0.118827 -15.45548,-0.15796 -23.17503,-0.524507 -8.05696,-0.438015 -16.08554,-1.294377 -24.15015,-1.547536 -8.30896,-0.0054 -16.61803,-0.01958 -24.92689,0.03065 -7.25831,0.06948 -14.51668,0.06804 -21.77513,0.01818 -7.84722,-0.06518 -15.69845,-0.233398 -23.52862,-0.784036 -9.28258,-0.753311 -18.51162,-2.003801 -27.79758,-2.721298 -9.22974,-0.937565 -18.4042,-2.557389 -27.70387,-2.630624 -11.21849,-0.06726 -22.43684,-0.09046 -33.6555,-0.102221 -10.82586,-0.07008 -21.66398,-0.143203 -32.46282,-0.996989 -10.17563,-0.795657 -20.33677,-1.758654 -30.51976,-2.458001 -9.98419,-0.877153 -20.02482,-1.053158 -29.96642,-2.417914 -9.50693,-1.34633 -18.90754,-3.235885 -28.14289,-5.891383 0,0 44.23947,-30.0160428 44.23947,-30.0160428 z"
       inkscape:connector-curvature="0" />
    <path
       style="fill:#4d4d4d"
       id="path3571"
       d="m 481.68639,-1.2826366 c 10.93476,0.70843853 21.86821,0.3731613 32.79381,-0.2393114 11.04549,-0.5810253 21.99821,-2.1788644 33.03146,-2.9747439 8.83503,-0.51695 17.69123,-0.5427492 26.53882,-0.5891654 6.77537,-0.1009058 13.55019,-0.124083 20.32604,-0.087492 6.04075,0.746915 12.09071,1.3959314 18.16927,1.7261131 4.40971,0.1786813 8.8247,0.187812 13.23744,0.2035675 4.89913,0.025658 9.79811,0.00916 14.69725,-0.015904 4.71677,0.8380973 9.35259,1.4634893 13.86741,3.09671898 6.92904,2.05115172 13.67513,4.62777952 20.64498,6.55855132 6.36588,1.5949687 12.90183,2.179095 19.44162,2.3750117 2.24294,0.04592 4.48635,0.027364 6.72946,0.013264 0,0 -43.10488,31.2461607 -43.10488,31.2461607 l 0,0 c -2.25763,-0.06299 -4.51613,-0.128323 -6.76699,-0.328122 -6.65243,-0.639187 -13.24694,-1.774192 -19.67956,-3.618501 -7.01114,-2.112678 -13.94248,-4.494528 -21.04182,-6.303241 -4.29145,-0.94048 -8.707,-1.693118 -13.10186,-1.783871 -4.90477,-0.01609 -9.80944,-0.0132 -14.71413,-0.01139 -4.47759,-0.02938 -8.9582,-0.08553 -13.41779,-0.539387 -5.89553,-0.580321 -11.77185,-1.529645 -17.70546,-1.570456 -6.67605,0.02022 -13.3508,-0.03243 -20.02658,-0.08609 -8.7432,0.05228 -17.49109,0.150769 -26.21515,0.792058 -10.87257,0.813523 -21.70931,2.096323 -32.60899,2.526278 -11.38461,0.548609 -22.77405,0.452611 -34.16091,0.899628 0,0 43.06656,-31.2896827 43.06656,-31.2896827 z"
       inkscape:connector-curvature="0" />
    <path
       style="fill:#4d4d4d"
       id="path3573"
       d="m 73.481617,6.6923234 c 7.447387,0.3497613 14.907185,0.243779 22.359616,0.1627674 5.114717,-0.067514 10.229607,-0.1171173 15.344717,-0.1409448 3.87433,-1.166193 7.89061,-1.599037 11.9109,-1.8540778 0.67571,-0.027728 1.35953,0.024852 2.02712,-0.083183 1.28412,-0.2078048 2.49958,-0.7322342 3.77395,-0.9932449 2.01816,-0.4133512 4.04843,-0.6240447 6.09666,-0.8126329 5.40829,-1.548056 11.08069,-1.4136331 16.59534,-2.28943938 8.07914,-0.76254588 16.07049,-2.12230312 24.13757,-3.01351362 7.2002,-0.4865401 14.30129,-1.6853566 21.50649,-2.1442174 9.15027,-0.6900665 18.26715,-1.6530911 27.4428,-2.0714385 10.84406,-0.4894881 21.66492,-1.4225902 32.51147,-1.9674302 7.70332,-0.3341949 15.40901,-0.6057242 23.11862,-0.7331218 5.55598,0.079657 11.12611,-0.3003065 16.63931,0.4607563 6.77214,0.5293378 13.4378,1.6982222 20.15978,2.6148551 6.74734,0.4415651 13.41727,1.423511 20.13704,2.1394911 7.84128,0.342643 15.61169,1.2636308 23.41902,2.01307 8.86739,0.7735202 17.77246,0.8889095 26.66755,0.9596019 4.53303,-0.012412 9.07632,0.13929419 13.59697,-0.2572286 0,0 -43.22782,31.3948437 -43.22782,31.3948437 l 0,0 c -4.24394,-0.507858 -8.54096,-0.22161 -12.80346,-0.394931 -9.03064,-0.172711 -18.07082,-0.373031 -27.06832,-1.224085 -7.8384,-0.804485 -15.69068,-1.304407 -23.53838,-1.994731 -6.78427,-0.765677 -13.59395,-1.261636 -20.35531,-2.206096 -6.65111,-1.014441 -13.31737,-1.866218 -20.03796,-2.284792 -5.49192,-0.0948 -10.98519,-0.0176 -16.47772,-0.01149 -7.41255,-0.016 -14.82808,0.0085 -22.23394,0.363141 -10.87621,0.539045 -21.71756,1.540349 -32.59382,2.071574 -9.22985,0.625359 -18.41646,1.662859 -27.63629,2.408408 -7.13969,0.78209 -14.25777,1.731686 -21.42397,2.25878 -8.09492,0.94829 -16.14964,2.217957 -24.23805,3.221052 -5.70707,0.634276 -11.355933,1.519581 -17.000065,2.553975 -3.997134,0.666724 -7.939327,1.638098 -12.009045,1.75122 -4.051341,0.517207 -8.07004,1.540882 -12.171855,1.420998 -4.985784,-0.02353 -9.971347,-0.07259 -14.956724,-0.140944 -7.602073,-0.08519 -15.210049,-0.173095 -22.807677,0.162767 0,0 43.135483,-31.339763 43.135483,-31.339763 z"
       inkscape:connector-curvature="0" />
    <path
       style="fill:#4d4d4d"
       id="path3575"
       d="m 681.4949,21.216361 c 7.21432,1.243932 14.42408,2.632239 21.48408,4.590828 5.62156,1.15113 10.94569,2.977998 16.15188,5.329348 3.85979,2.339097 7.50685,5.083333 10.76919,8.203981 3.37954,3.348786 6.10154,7.293783 8.76174,11.219272 2.40274,4.086419 5.02736,8.03336 7.3594,12.161407 2.01707,4.310201 4.29928,8.473019 6.22635,12.826534 1.89709,4.408008 3.3323,8.953862 4.66657,13.553126 1.07172,3.35131 1.76364,6.80014 2.70218,10.188368 0,0 -46.78345,25.452635 -46.78345,25.452635 l 0,0 c -0.93069,-3.3589 -1.70036,-6.73287 -2.60789,-10.09664 -1.37092,-4.36792 -2.35754,-8.84755 -4.24302,-13.05276 -1.8429,-4.208322 -4.26088,-8.119337 -6.05746,-12.348491 -2.20786,-4.016231 -4.80771,-7.789992 -7.10178,-11.756091 -2.46242,-3.580363 -4.9699,-7.200179 -8.20406,-10.137293 -3.00202,-2.638393 -6.22164,-5.112383 -9.87726,-6.777113 -4.84112,-2.226495 -10.02109,-3.481508 -15.13634,-4.917696 -7.15069,-1.749711 -14.39,-3.186118 -21.75064,-3.669259 0,0 43.64051,-30.770156 43.64051,-30.770156 z"
       inkscape:connector-curvature="0" />
    <path
       style="fill:#4d4d4d"
       id="path3577"
       d="m 19.987148,926.30261 c 2.338562,4.88183 4.907085,9.62466 8.721459,13.5107 3.833727,3.0121 6.75344,6.8723 9.947833,10.49036 2.002257,3.11503 4.757994,5.56516 7.192231,8.30543 2.587565,1.98508 4.571234,4.59521 7.015459,6.72755 2.029988,2.40949 4.541002,4.32138 6.624937,6.67966 2.350251,2.48407 4.982278,4.53871 7.557762,6.74275 2.85461,2.13092 6.057708,3.66556 9.121662,5.45616 3.467171,2.37127 7.344979,3.95304 10.906484,6.18037 3.168036,1.59358 6.487269,2.83936 9.656361,4.42514 3.236506,1.49595 6.346374,3.23376 9.673394,4.5748 3.64722,1.55407 6.84867,3.90497 10.35532,5.72157 3.62976,2.0848 7.30265,4.1481 11.11457,5.8907 3.46909,2.2564 7.14138,4.1402 10.52259,6.5321 3.47378,2.3025 7.56103,3.3421 11.22307,5.2172 3.36097,1.0053 6.21395,3.025 9.34416,4.533 3.22672,1.6809 6.49266,3.5052 9.96362,4.6493 3.64811,0.9774 7.20435,2.2853 10.80362,3.4582 3.86445,1.3074 7.644,2.5303 11.71793,3.0298 4.16954,1.1613 8.33447,2.1125 12.2914,3.9073 5.16592,1.7905 10.47713,3.2103 15.78304,4.5579 5.73548,1.2351 11.56039,1.7317 17.34156,2.6976 5.35161,0.8717 10.77869,1.0541 16.18944,1.1593 5.61943,-0.183 11.12205,1.0046 16.70983,1.4959 1.04709,0.069 2.09418,0.1387 3.14128,0.208 0,0 -42.99963,30.7466 -42.99963,30.7466 l 0,0 c -1.07827,-0.092 -2.15653,-0.1836 -3.2348,-0.2754 -5.53483,-0.5824 -11.05372,-1.1764 -16.6285,-1.146 -5.54042,-0.2646 -11.07364,-0.7162 -16.53151,-1.7517 -5.85593,-0.9373 -11.80308,-1.4057 -17.49706,-3.189 -5.52764,-1.4802 -11.17137,-2.6564 -16.47905,-4.8416 -3.84514,-1.2414 -7.75847,-2.2849 -11.73337,-3.0206 -4.13431,-0.9515 -8.10292,-2.4158 -12.15181,-3.6665 -3.68581,-1.2519 -7.46554,-2.2389 -11.08388,-3.6847 -3.43449,-1.6286 -6.86567,-3.2631 -10.22255,-5.0481 -2.98966,-1.6264 -6.07622,-3.0081 -9.18135,-4.3961 -4.00879,-1.6586 -7.958989,-3.5065 -11.577343,-5.9201 -3.346338,-2.0433 -6.743658,-4.0122 -10.145641,-5.9597 -3.807972,-1.9772 -7.630596,-3.9277 -11.347007,-6.0751 -3.27064,-1.9354 -6.549258,-3.8681 -10.088625,-5.2841 -3.262126,-1.5256 -6.450452,-3.1787 -9.743176,-4.6345 -3.414417,-1.4016 -6.680693,-3.1729 -9.926231,-4.921 -3.613783,-2.0038 -7.238134,-3.9857 -10.788169,-6.1009 -3.409318,-1.8129 -6.789985,-3.7311 -9.777245,-6.1985 -2.80988,-2.2484 -5.297158,-4.8252 -7.902031,-7.30173 -2.174535,-2.12122 -4.457205,-4.13206 -6.4840924,-6.40566 -2.3762484,-2.4007 -4.7599231,-4.7873 -7.2202842,-7.09892 -2.5113544,-2.73938 -5.0385378,-5.47185 -7.1433213,-8.54783 -2.985057,-3.71056 -6.1329411,-7.21199 -9.6899441,-10.39719 -3.711668,-4.32444 -6.471854,-9.1887 -9.402812,-14.04246 0,0 46.06042,-26.99 46.06042,-26.99 z"
       inkscape:connector-curvature="0" />
    <path
       style="fill:#4d4d4d"
       id="path3579"
       d="m 27.753516,734.17306 c -0.361373,6.11173 -0.208327,12.24044 -0.13062,18.35859 0.06413,4.46922 0.0942,8.93878 0.109345,13.40839 0.01021,3.99657 0.0092,7.99315 0.009,11.98973 -4.85e-4,3.99244 -9.13e-4,7.98489 -0.0011,11.97734 -1.91e-4,3.99958 -2.01e-4,7.99915 -2.13e-4,11.99873 -4e-6,4.00009 2e-6,8.00018 5e-6,12.00027 2e-6,4.00001 3e-6,8.00003 3e-6,12.00004 0.05648,3.90572 -0.11588,7.81771 0.0913,11.71941 0.702249,3.92851 1.117999,7.89711 1.688113,11.84371 0.913459,3.93826 1.377204,7.9564 2.282617,11.89393 0.831616,4.01577 1.556899,8.03957 2.460123,12.04128 1.072123,3.91621 2.201911,7.81736 3.695652,11.59582 1.311643,3.73635 3.172336,7.23015 4.393526,10.99716 1.292806,3.06978 2.33924,6.23138 3.650868,9.29362 1.597578,3.41223 3.421685,6.70514 4.97405,10.15009 1.934433,3.16012 3.495148,6.53767 4.791244,10.0042 1.277531,3.02397 2.797521,5.93425 4.067975,8.95862 1.607556,2.617 2.47491,5.56224 3.65314,8.37619 1.396455,2.88277 2.882828,5.75608 4.59745,8.4648 1.677496,3.23504 3.297005,6.49196 5.096216,9.6681 1.588772,3.31284 3.912841,6.15396 6.078516,9.09305 2.095545,3.099 4.49039,6.00305 6.799927,8.95642 2.832933,3.73178 6.545577,6.57643 9.736383,9.98213 3.206547,3.11572 6.885184,5.61152 10.411524,8.33049 3.24829,2.35248 6.53305,4.51593 10.22176,6.12393 3.77062,2.3185 7.6881,4.3765 11.50425,6.6169 3.95106,2.0945 8.02406,3.9557 11.94428,6.1082 4.01826,1.5439 7.91195,3.381 11.90191,4.9961 3.62792,1.9015 7.32246,3.6366 10.93273,5.5637 1.61889,0.8286 3.37119,1.1968 5.13553,1.5483 0,0 -43.96776,30.1483 -43.96776,30.1483 l 0,0 c -1.95757,-0.6856 -3.89794,-1.407 -5.72384,-2.4063 -3.58896,-1.7065 -6.93666,-3.8865 -10.6591,-5.3233 -4.03702,-1.7937 -8.204769,-3.302 -12.113601,-5.3727 -4.048163,-2.0162 -8.070337,-4.0879 -12.037312,-6.2598 -3.815247,-2.0882 -7.519647,-4.3824 -11.428249,-6.2944 -3.76205,-2.0448 -7.241276,-4.4373 -10.634953,-7.0497 -3.806849,-2.8031 -7.60033,-5.6447 -10.893542,-9.0594 -3.342279,-3.4545 -7.075181,-6.5219 -10.029937,-10.3431 -2.406327,-2.9527 -4.895582,-5.8638 -7.001558,-9.0378 -2.324847,-3.07298 -4.558205,-6.22727 -6.283855,-9.68445 -1.843985,-3.10161 -3.600441,-6.24465 -5.19829,-9.47456 -1.778963,-2.99299 -3.404104,-6.07905 -5.021916,-9.16272 -1.181028,-2.8398 -2.063685,-5.78109 -3.661752,-8.43216 -1.212003,-3.12702 -2.822446,-6.08798 -4.0733327,-9.20366 -1.1534932,-3.37897 -2.8388678,-6.54631 -4.5897694,-9.65016 -1.5321545,-3.44214 -3.3839042,-6.71598 -4.95205554,-10.13509 -1.53397226,-3.22873 -2.69765356,-6.59023 -4.05371276,-9.89379 -0.9819607,-3.66253 -2.8287028,-6.99582 -4.0120766,-10.5934 -1.724455,-4.02903 -2.88034,-8.22793 -4.186398,-12.40418 -0.833558,-3.99033 -1.822072,-7.92105 -2.412336,-11.95872 -0.973604,-4.01542 -1.538957,-8.06545 -2.404413,-12.10607 -0.895157,-4.00173 -0.883118,-8.15459 -1.861862,-12.15629 -0.688562,-4.05593 -0.290581,-8.17732 -0.387167,-12.28058 0,-4.00002 1e-6,-8.00003 3e-6,-12.00005 3e-6,-4.00009 9e-6,-8.00018 5e-6,-12.00027 -1.2e-5,-3.99951 -2.2e-5,-7.99901 -2.13e-4,-11.99851 -2.29e-4,-3.99206 -6.57e-4,-7.98412 -0.0011,-11.97618 -2.03e-4,-3.99962 -0.0012,-7.99925 0.009,-11.99886 0.01522,-4.50675 0.04555,-9.01345 0.109345,-13.51981 0.07615,-6.07358 0.235911,-12.15875 -0.13062,-18.22549 0,0 47.507032,-24.20604 47.507032,-24.20604 z"
       inkscape:connector-curvature="0" />
  </g>
</svg>
